<svg width="1920" height="1080" viewBox="0 0 1920 1080" fill="none" xmlns="http://www.w3.org/2000/svg">
<path d="M1870.94 956.941V1029.15H1775.6V956.941H1769.45V1029.15H1674.1V956.941H1667.94V1029.15H1572.6V956.941H1566.44V1029.15H1471.11V956.941H1464.95V1029.15H1369.61V956.941H1363.45V1029.15H1268.11V956.941H1261.95V1029.15H1166.61V956.941H1160.45V1029.15H1065.11V956.941H1058.95V1029.15H963.607V956.941H957.45V1029.15H862.108V956.941H855.949V1029.15H817.083V1035.15H855.949V1080H862.108V1035.15H957.45V1080H963.607V1035.15H1058.95V1080H1065.11V1035.15H1160.45V1080H1166.61V1035.15H1261.95V1080H1268.11V1035.15H1363.45V1080H1369.61V1035.15H1464.95V1080H1471.11V1035.15H1566.44V1080H1572.6V1035.15H1667.94V1080H1674.1V1035.15H1769.45V1080H1775.6V1035.15H1870.94V1080H1877.1V1035.15H1916.46V1029.15H1877.1V956.941H1870.94Z" fill="#1B1B1B"/>
<path d="M638.51 274.116L670.312 245.592V0.0937478L638.51 0.0865479V274.116Z" fill="#1B1B1B"/>
<path d="M700.208 218.779L732.01 190.255V0.107522L700.208 0.102722V218.779Z" fill="#1B1B1B"/>
<path d="M823.602 108.104L855.402 79.5782V0.139055L823.602 0.129456V108.104Z" fill="#1B1B1B"/>
<path d="M761.905 163.44L793.707 134.917V0.124407L761.905 0.114807V163.44Z" fill="#1B1B1B"/>
<path d="M576.813 329.454L608.615 300.93V0.0791604L576.813 0.0719604V329.454Z" fill="#1B1B1B"/>
<path d="M268.33 0V591.147V606.142L300.129 577.618V0.00719992L268.33 0Z" fill="#1B1B1B"/>
<path d="M885.299 52.7657L917.099 24.2421V0.153521L885.299 0.143921V52.7657Z" fill="#1B1B1B"/>
<path d="M330.024 550.804L361.826 522.28V0.0216042L330.024 0.0144043V550.804Z" fill="#1B1B1B"/>
<path d="M391.722 495.467L423.524 466.943V0.0354592L391.722 0.0282593V495.467Z" fill="#1B1B1B"/>
<path d="M515.116 384.789L546.918 356.268V0.0638405L515.116 0.0566406V384.789Z" fill="#1B1B1B"/>
<path d="M453.419 440.128L485.221 411.605V0.0500466L453.419 0.0428467V440.128Z" fill="#1B1B1B"/>
<path d="M534.989 517.97L526.521 527.476H530.598L540.826 515.995L534.989 517.97Z" fill="#1B1B1B"/>
<path d="M564.647 507.938L547.652 527.478H551.688L570.368 506.003L564.647 507.938Z" fill="#1B1B1B"/>
<path d="M595.646 497.452L566.636 527.478H570.863L601.929 495.328L595.646 497.452Z" fill="#1B1B1B"/>
<path d="M628.01 486.506L587.73 527.478H591.995L633.97 484.783L633.738 484.569L628.01 486.506Z" fill="#1B1B1B"/>
<path d="M659.098 475.989L608.652 527.478L612.91 527.48L665.464 473.836L659.098 475.989Z" fill="#1B1B1B"/>
<path d="M688.702 465.978L629.594 527.48H633.812L694.953 463.864L688.702 465.978Z" fill="#1B1B1B"/>
<path d="M718.624 455.858L648.228 527.481H652.492L725.008 453.698L718.624 455.858Z" fill="#1B1B1B"/>
<path d="M750.934 444.929L668.931 527.483H673.215L757.389 442.747L750.934 444.929Z" fill="#1B1B1B"/>
<path d="M782.884 434.122L688.68 527.483H692.996L789.44 431.904L782.884 434.122Z" fill="#1B1B1B"/>
<path d="M813.717 423.694L709.188 527.483H713.502L820.261 421.481L813.717 423.694Z" fill="#1B1B1B"/>
<path d="M847.01 412.434L728.327 527.486H732.692L853.719 410.166L847.01 412.434Z" fill="#1B1B1B"/>
<path d="M877.433 402.142L749.69 527.485H754.028L884.058 399.903L877.433 402.142Z" fill="#1B1B1B"/>
<path d="M911.12 390.749L767.222 527.485H771.632L917.969 388.433L911.12 390.749Z" fill="#1B1B1B"/>
<path d="M941.682 380.412L790.1 527.485H794.463L948.381 378.147L941.682 380.412Z" fill="#1B1B1B"/>
<path d="M973.938 369.503L813.306 527.488H817.64L980.543 367.268L973.938 369.503Z" fill="#1B1B1B"/>
<path d="M1008.66 357.759L830.71 527.487H835.113L1015.48 355.45L1008.66 357.759Z" fill="#1B1B1B"/>
<path d="M851.709 527.489H856.055L970.309 415.82L1082.65 527.498H1086.97L970.326 411.553L851.709 527.489Z" fill="#1B1B1B"/>
<path d="M872.074 527.49H876.425L970.314 435.941L1063.71 527.495H1068.05L970.318 431.691L872.074 527.49Z" fill="#1B1B1B"/>
<path d="M891.799 527.49H896.152L970.301 455.275L1042.38 527.495H1046.14L1046.42 527.236L970.333 451.003L891.799 527.49Z" fill="#1B1B1B"/>
<path d="M911.393 527.49H915.791L970.732 474.99L1022.29 527.494H1026.55L970.801 470.723L911.393 527.49Z" fill="#1B1B1B"/>
<path d="M934.19 527.49H938.44L970.311 494.836L1001.82 527.492L1005.55 527.495L1005.81 527.255L970.324 490.468L934.19 527.49Z" fill="#1B1B1B"/>
<path d="M1034.97 348.858L979.486 403.678L1101.79 527.497H1106.07L983.785 403.704L1041.55 346.633L1034.97 348.858Z" fill="#1B1B1B"/>
<path d="M1000.53 406.155L1122.88 527.498H1127.2L1004.85 406.16L1062.56 349.146L1245.7 527.502H1250.06L1062.54 344.888L1000.53 406.155Z" fill="#1B1B1B"/>
<path d="M1018.58 404.795L1140.57 527.501H1144.86L1022.9 404.823L1062.37 366.225L1223.69 527.503H1227.99L1062.4 361.95L1018.58 404.795Z" fill="#1B1B1B"/>
<path d="M1039.58 403.206L1161.26 527.5H1165.52L1043.96 403.326L1061.73 387.162L1204.77 527.503H1209.1L1061.81 382.983L1039.58 403.206Z" fill="#1B1B1B"/>
<path d="M1058.87 403.861L1182.73 527.5H1187.04L1061.07 401.766L1058.87 403.861Z" fill="#1B1B1B"/>
<path d="M1072.37 336.21L1265.53 527.502H1269.85L1075.59 335.121L1072.37 336.21Z" fill="#1B1B1B"/>
<path d="M1087.47 331.103L1283.09 527.505H1287.38L1090.67 330.019L1087.47 331.103Z" fill="#1B1B1B"/>
<path d="M1100 326.867L1303.9 527.505H1308.23L1103.22 325.776L1100 326.867Z" fill="#1B1B1B"/>
<path d="M1222.32 285.491L1202.45 307.086L1363.57 465.23L1314.58 513.014L1120.26 320.01L1117.04 321.1L1314.56 517.276L1367.92 465.24L1206.68 306.983L1228.33 283.459L1222.32 285.491Z" fill="#1B1B1B"/>
<path d="M1190.45 296.27L1181.65 307.223L1343.37 465.206L1314.42 491.98L1135.38 314.898L1132.16 315.985L1314.35 496.183L1347.78 465.264L1185.75 306.985L1195.82 294.453L1190.45 296.27Z" fill="#1B1B1B"/>
<path d="M1162.71 305.656L1324.04 463.874L1314.6 472.54L1150.61 309.748L1147.39 310.835L1314.52 476.74L1328.45 463.944L1165.93 304.564L1162.71 305.656Z" fill="#1B1B1B"/>
<path d="M1251.41 275.652L1222.18 307.636L1385.18 465.218L1318.55 527.505H1323L1389.59 465.254L1226.43 307.506L1257.38 273.633L1251.41 275.652Z" fill="#1B1B1B"/>
<path d="M1284.13 264.585L1243.18 306.928L1403.14 465.22L1338.37 527.505H1342.75L1407.5 465.252L1247.45 306.882L1290.42 262.459L1284.13 264.585Z" fill="#1B1B1B"/>
<path d="M1472.92 236.95L1563.6 330.426L1515.37 376.664L1405.32 267.461L1363.58 308.702L1463.83 406.157L1404.23 464.174L1406.41 466.296L1468.19 406.157L1367.92 308.685L1405.32 271.737L1515.33 380.91L1567.91 330.501L1477.16 236.95H1472.92Z" fill="#1B1B1B"/>
<path d="M1454.39 236.95L1544.84 330.421L1516.16 357.716L1408.4 250.332L1407.35 249.283L1343.37 307.396L1443.93 406.179L1405.31 445.815L1266.64 305.853L1321.15 252.065L1314.57 254.29L1262.34 305.831L1404.21 449.026L1405.33 450.154L1448.22 406.133L1347.79 307.48L1407.25 253.476L1515.04 360.884L1516.11 361.957L1549.15 330.505L1458.62 236.95H1454.39Z" fill="#1B1B1B"/>
<path d="M1373.24 236.95L1373.23 236.962L1385.23 249.751L1323.13 307.696L1423.67 407.506L1406.26 424.498L1286.5 306.218L1353.43 241.145L1346.75 243.406L1282.16 306.201L1406.25 428.758L1428 407.525L1327.51 307.761L1389.54 249.89L1377.39 236.95H1373.24Z" fill="#1B1B1B"/>
<path d="M1355.27 240.523L1364.46 248.793L1303.64 305.752L1405.14 409.524L1407.37 407.455L1307.99 305.845L1368.95 248.75L1358.57 239.407L1355.27 240.523Z" fill="#1B1B1B"/>
<path d="M1492.71 236.95L1586.01 328.693L1515.94 397.431L1406.27 288.357L1385.23 308.793L1483.51 408.459L1358.81 527.507H1363.21L1487.84 408.521L1389.54 308.838L1406.24 292.619L1515.93 401.703L1590.35 328.693L1497.05 236.95H1492.71Z" fill="#1B1B1B"/>
<path d="M1432.1 236.95L1525.87 329.053L1516.08 337.749L1416.5 236.95H1412.23L1515.94 341.934L1530.32 329.164L1436.44 236.95H1432.1Z" fill="#1B1B1B"/>
<path d="M1404.22 309.378L1503.6 408.475L1380.92 527.507H1385.29L1506.85 409.553L1507.93 408.504L1406.42 307.283L1404.22 309.378Z" fill="#1B1B1B"/>
<path d="M1512.48 236.95L1605.85 329.886L1399.35 527.507H1403.74L1609.1 330.976L1610.2 329.927L1516.79 236.95H1512.48Z" fill="#1B1B1B"/>
<path d="M1531.35 236.95L1626.02 329.01L1420.05 527.445L1420.11 527.507L1424.36 527.51L1630.39 329.02L1535.71 236.95H1531.35Z" fill="#1B1B1B"/>
<path d="M1555.26 236.95L1645.22 331.744L1442.65 527.51H1447.03L1648.45 332.853L1649.5 331.833L1559.45 236.95H1555.26Z" fill="#1B1B1B"/>
<path d="M1572.68 236.95L1665.08 331.765L1522.03 472.334L1522.09 472.39L1528.39 470.354L1669.37 331.811L1576.93 236.95H1572.68Z" fill="#1B1B1B"/>
<path d="M1594.07 236.95L1752.5 397.887L1755.74 396.841L1598.34 236.95H1594.07Z" fill="#1B1B1B"/>
<path d="M1612.54 236.95L1768.04 392.866L1771.28 391.815L1616.84 236.95H1612.54Z" fill="#1B1B1B"/>
<path d="M1633.77 236.95L1781.79 388.419L1785.02 387.375L1638.02 236.95H1633.77Z" fill="#1B1B1B"/>
<path d="M1655.02 236.95L1798.57 382.995L1801.8 381.949L1659.29 236.95H1655.02Z" fill="#1B1B1B"/>
<path d="M1673.4 236.95L1812.64 378.445L1815.87 377.399L1677.67 236.95H1673.4Z" fill="#1B1B1B"/>
<path d="M1692.79 236.95L1828.1 373.446L1831.34 372.397L1697.07 236.95H1692.79Z" fill="#1B1B1B"/>
<path d="M1714.68 236.95L1842.85 368.675L1846.08 367.633L1718.92 236.95H1714.68Z" fill="#1B1B1B"/>
<path d="M1733.41 236.95L1857.84 363.827L1861.08 362.78L1737.67 236.95H1733.41Z" fill="#1B1B1B"/>
<path d="M1752.74 236.95L1872.58 359.063L1875.81 358.016L1757 236.95H1752.74Z" fill="#1B1B1B"/>
<path d="M1772.22 236.95L1888.63 353.872L1891.88 352.82L1776.51 236.95H1772.22Z" fill="#1B1B1B"/>
<path d="M1793.2 236.95L1904.71 348.673L1907.95 347.624L1797.49 236.95H1793.2Z" fill="#1B1B1B"/>
<path d="M1812.87 236.95L1918.38 344.253L1920 343.729V341.562L1817.13 236.95H1812.87Z" fill="#1B1B1B"/>
<path d="M1830.51 236.95L1919.94 324.155L1920 324.095V319.97L1834.87 236.95H1830.51Z" fill="#1B1B1B"/>
<path d="M1852.07 236.95L1919.93 304.48L1920 304.413V300.263L1856.38 236.95H1852.07Z" fill="#1B1B1B"/>
<path d="M1870.43 236.95L1919.94 285.05L1920 284.992V280.872L1874.79 236.95H1870.43Z" fill="#1B1B1B"/>
<path d="M1891.89 236.95L1919.9 266.313L1920 266.222V262.01L1896.09 236.95H1891.89Z" fill="#1B1B1B"/>
<path d="M1550.29 463.272L1556.72 461.191L1677.5 341.963L1739.77 402.003L1743.05 400.945L1677.47 337.72L1550.29 463.272Z" fill="#1B1B1B"/>
<path d="M1580.62 453.463L1586.95 451.418L1677.51 360.433L1725.29 406.688L1728.56 405.629L1677.47 356.166L1580.62 453.463Z" fill="#1B1B1B"/>
<path d="M1611.52 443.419L1611.56 443.459L1617.62 441.501L1677.48 379.867L1708.46 412.128L1711.68 411.086L1677.49 375.49L1611.52 443.419Z" fill="#1B1B1B"/>
<path d="M1639.48 434.434L1645.85 432.375L1677.12 401.175L1693.3 417.029L1696.57 415.973L1677.1 396.903L1639.48 434.434Z" fill="#1B1B1B"/>
<path d="M1667.81 425.271L1673.14 423.55L1677.43 418.263L1680.28 421.244L1683.49 420.205L1677.25 413.658L1667.81 425.271Z" fill="#1B1B1B"/>
<path d="M953.119 527.493H957.362L970.112 514.389L982.197 527.493H984.609L985.567 526.655L970.171 509.968L953.119 527.493Z" fill="#1B1B1B"/>
<path d="M1686.83 887.134C1682.32 879.879 1680.38 870.977 1679.6 863.456C1680.61 854.12 1679.79 847.381 1679.39 847.582C1679.39 847.582 1679.34 848.05 1679.29 848.876C1678.68 851.789 1675.56 855.634 1671.8 859.39C1664.35 866.842 1654.74 871.796 1644.34 874.172C1634.56 876.404 1628.22 880.639 1624.62 883.822C1620.93 887.074 1616.76 889.767 1612.23 891.768C1283.71 1037.01 1074.89 839.47 1074.84 839.427L1050.3 859.707C1108.84 910.008 1171.34 940.236 1232.93 956.939H1515.22C1573.29 943.32 1615.49 925.579 1630.8 918.456C1634.52 916.721 1638.35 915.192 1642.3 914.042C1668.91 906.314 1677.2 882.209 1679.39 865.263V906.943C1680.2 913.721 1682.33 919.123 1685.06 923.414C1733.8 999.94 1905.18 747.71 1917.78 728.971L1918.24 649.4C1881.65 771.405 1718.91 938.676 1686.83 887.134Z" fill="#1B1B1B"/>
<path d="M1528.42 654.464C1491.04 681.295 1446.67 697.649 1400.32 700.289C1368.02 702.127 1329.35 698.217 1288.28 680.837L1280.95 684.893C1280.81 684.972 1280.66 685.051 1280.52 685.133L1269.95 690.989C1269.81 691.063 1269.68 691.14 1269.54 691.214L1258.68 697.226C1258.69 697.229 1486.52 823.734 1639.86 579.546C1639.86 579.546 1681.68 542.692 1679.28 493.488C1683.4 522.136 1694.21 542.579 1706.9 542.579C1723.13 542.579 1736.3 509.08 1736.3 467.755C1736.3 443.717 1731.84 422.343 1724.92 408.653L1726.93 406.157L1680.61 463.565L1677.52 465.276C1677.51 466.102 1677.5 466.925 1677.5 467.755C1677.5 473.023 1677.71 478.159 1678.12 483.12C1677.21 477.962 1675.8 472.699 1673.77 467.35L1629.21 492.026C1630.5 516.655 1624.25 585.673 1528.42 654.464Z" fill="#1B1B1B"/>
<path d="M1727.99 811.791C1691.87 844.325 1679.39 772.983 1679.39 772.981C1661.6 797.544 1642.86 795.504 1629.43 808.731C1620.82 817.21 1610.98 824.438 1600.07 829.841C1319.4 968.773 1125.26 797.885 1125.19 797.828L1100.75 818.021C1387.75 1030.52 1677.88 828.624 1677.88 828.624C1676.92 864.129 1705.55 871.32 1721.94 858.437C1988.8 648.631 1907.09 347.905 1907.09 347.905L1874.94 358.299C1929.78 608.832 1774.89 769.534 1727.99 811.791Z" fill="#1B1B1B"/>
<path d="M1744.03 956.94H1799.57C1856.29 910.584 1912.23 845.576 1917.14 839.838L1917.48 780.167C1879.13 844.004 1800.26 927.192 1744.03 956.94Z" fill="#1B1B1B"/>
<path d="M1640.45 946.075C1630.55 948.525 1621.43 952.958 1614.58 956.939H1667.92C1671.9 945.264 1676.25 923.592 1678.26 913.034C1675.76 930.758 1675.44 945.187 1676.5 956.939H1686.93C1685.36 954.453 1684.06 951.528 1683.04 948.132C1678.33 932.45 1678.5 914.935 1678.59 911.294C1679.1 908.58 1679.39 906.943 1679.39 906.943C1678.28 912.938 1676.25 919.956 1671.61 926.121C1664.03 936.18 1652.86 943.003 1640.45 946.075Z" fill="#1B1B1B"/>
<path d="M1916.86 887.337C1893.98 915.692 1858.57 943.695 1841.91 956.938H1893.53C1904.04 948.961 1916.46 937.825 1916.46 937.825C1916.46 937.825 1916.51 935.72 1916.6 932.356L1916.86 887.337Z" fill="#1B1B1B"/>
<path d="M973.999 956.939H1024.72C1024.49 956.795 983.167 931.699 977.414 919.917L953.112 939.993C953.114 939.995 966.33 952.917 973.999 956.939Z" fill="#1B1B1B"/>
<path d="M1026.64 879.252L1001.3 900.182C1001.31 900.192 1083.92 957.661 1088.28 956.939H1150.86C1074.05 919.994 1026.65 879.261 1026.64 879.252Z" fill="#1B1B1B"/>
<path d="M1370.3 635.412L1322.57 661.848C1322.66 665.465 1414.79 682.181 1494.32 641.187C1571.85 601.22 1595.88 510.487 1595.88 510.484L1547.54 537.256C1497.59 652.399 1370.3 635.412 1370.3 635.412Z" fill="#1B1B1B"/>
<path d="M1623.72 699.336C1630.08 694.022 1637.26 689.739 1644.9 686.4C1655.79 681.648 1672.98 670.5 1679.39 648.778C1754.09 793.763 1812.14 459.466 1789.52 385.921L1754.87 397.124C1775.93 500.882 1737.48 629.756 1703.02 634.215C1687.12 636.274 1681.3 622.916 1679.4 609.342C1679.4 595.391 1679.39 583.093 1679.39 583.093C1669.59 629.156 1636.7 627.099 1614.21 663.471C1607.95 673.599 1599.79 682.493 1590.35 689.914C1541.78 728.071 1399.78 816.438 1223.15 716.906L1198.4 737.349C1198.5 737.424 1399.53 886.683 1623.72 699.336Z" fill="#1B1B1B"/>
<path d="M1815 377.678C1856.5 566.456 1751.24 697.996 1723.55 728.641C1692.77 762.709 1680.08 708.702 1680.09 708.692C1679.79 710.888 1679.55 713.007 1679.34 715.067C1679.31 697.127 1679.29 674.241 1679.36 671.13C1678.82 679.3 1676.6 686.634 1673.66 692.984C1667.28 706.756 1656.28 717.978 1642.81 725.456C1626.39 734.571 1612.65 746.643 1606.04 752.981C1602.65 756.233 1598.87 759.077 1594.79 761.458C1355.36 901.278 1174.35 757.361 1174.26 757.294L1153.16 774.723C1235.8 853.382 1372.21 852.384 1373.01 853.164C1496.87 858.115 1587.3 803.549 1619.4 780.404C1626.88 775.011 1635.24 770.825 1644.18 768.322C1661.11 763.577 1668.46 752.105 1671.41 745.357C1672.91 741.908 1675.53 739.04 1678.92 737.271C1679.95 750.466 1683.47 759.466 1687.9 765.598C1752.63 855.34 1916.9 483.757 1845.2 367.913L1815 377.678Z" fill="#1B1B1B"/>
<path d="M1.44361 721.269L36.7147 686.854L45.6162 683.83L1.40912 726.965L1.44361 721.269Z" fill="#1B1B1B"/>
<path d="M1.29868 745.003L62.9934 677.924L71.0154 675.2L1.26172 751.039L1.29868 745.003Z" fill="#1B1B1B"/>
<path d="M1.16995 765.652L89.2638 668.998L97.2192 666.296L1.133 771.717L1.16995 765.652Z" fill="#1B1B1B"/>
<path d="M1.03464 787.87L115.53 660.074L123.367 657.41L0.997681 793.997L1.03464 787.87Z" fill="#1B1B1B"/>
<path d="M0.906768 808.906L142.792 650.81L150.639 648.144L0.869812 815.026L0.906768 808.906Z" fill="#1B1B1B"/>
<path d="M0.76657 831.723L166.959 642.6L174.663 639.982L0.729614 837.92L0.76657 831.723Z" fill="#1B1B1B"/>
<path d="M0.641082 852.303L196.433 632.585L204.228 629.936L0.604126 858.447L0.641082 852.303Z" fill="#1B1B1B"/>
<path d="M0.495391 875.915L224.936 622.901L232.704 620.261L0.458435 882.076L0.495391 875.915Z" fill="#1B1B1B"/>
<path d="M0.529731 904.672L0.320312 904.497L0.357269 898.734L252.221 613.629L259.963 610.999L0.529731 904.672Z" fill="#1B1B1B"/>
<path d="M0.221832 920.74L280.173 604.131L287.919 601.498L0.184875 926.913L0.221832 920.74Z" fill="#1B1B1B"/>
<path d="M0.0963658 941.4C50.2583 883.056 104.535 823.316 152.558 770.459C219.244 697.061 277.209 633.262 303.455 596.221L309.942 594.018C285.201 630.502 225.148 696.6 155.635 773.109C106.609 827.07 51.0639 888.204 0.0569458 947.678L0.0963658 941.4Z" fill="#1B1B1B"/>
<path d="M9.23407 956.939C57.4053 897.107 110.275 839.194 161.41 783.181C230.361 707.656 290.235 642.067 322.12 589.877L328.097 587.847C296.672 641.033 235.362 708.196 164.48 785.84C114.089 841.034 62.015 898.077 14.4548 956.939H9.23407Z" fill="#1B1B1B"/>
<path d="M28.3356 956.94C76.2974 896.163 129.307 838.722 176.101 788.02C247.513 710.642 309.388 643.594 337.381 584.694L342.74 582.873C315.293 643.179 252.194 711.552 179.154 790.694C130.783 843.104 80.7962 897.269 33.5193 956.94H28.3356Z" fill="#1B1B1B"/>
<path d="M48.2009 956.939C102.43 892.968 160.76 825.037 220.065 761.358C279.569 699.708 323.133 640.128 353.152 579.335L358.609 577.482C328.356 639.898 284.021 700.934 223.083 764.073C164.645 826.82 107.112 893.753 53.5275 956.939H48.2009Z" fill="#1B1B1B"/>
<path d="M66.9627 956.939C98.0306 919.598 133.245 880.051 167.309 841.795C253.643 744.844 342.871 644.645 370.541 573.428L375.557 571.722C349.04 643.817 258.236 745.792 170.413 844.419C137.135 881.786 102.759 920.392 72.2524 956.939H66.9627Z" fill="#1B1B1B"/>
<path d="M85.1816 956.938C117.442 917.089 153.026 877.864 187.449 839.925C270.887 747.956 349.746 661.026 380.142 570.163L384.998 568.515C355.056 661.221 275.134 749.314 190.527 842.572C156.857 879.686 122.071 918.028 90.4146 956.938H85.1816Z" fill="#1B1B1B"/>
<path d="M103.766 956.939C119.919 938.51 137.911 918.837 156.944 898.027C243.338 803.569 350.651 686.222 395.006 565.114L399.98 563.425C356.047 686.344 247.361 805.184 160.011 900.688C141.883 920.507 124.703 939.292 109.169 956.939H103.766Z" fill="#1B1B1B"/>
<path d="M124.262 956.939C144.44 931.209 167.929 904.754 192.783 876.763C262.687 798.037 349.542 700.207 411.532 559.499L416.785 557.713C354.452 700.804 266.536 799.818 195.89 879.379C171.861 906.441 149.109 932.066 129.438 956.939H124.262Z" fill="#1B1B1B"/>
<path d="M142.336 956.939C153.085 945.163 164.042 933.379 174.641 921.974C257.903 832.402 343.979 739.782 420.22 556.547L425.384 554.792C348.535 740.858 261.68 834.296 177.686 924.657C167.888 935.198 157.789 946.063 147.835 956.939H142.336Z" fill="#1B1B1B"/>
<path d="M163.477 956.938C173.909 943.71 186.052 930.219 200.074 914.646C254.284 854.426 336.06 763.57 437.816 550.567L443.142 548.758L443.201 548.784C340.426 764.806 257.821 856.564 203.161 917.281C190.051 931.844 178.587 944.581 168.673 956.938H163.477Z" fill="#1B1B1B"/>
<path d="M183.022 956.939L182.933 956.886C195.656 936.904 211.136 919.939 229.06 900.297C276.076 848.772 347.012 771.016 449.999 546.428L455.215 544.657L455.296 544.691C351.213 772.453 279.549 850.987 232.127 902.954C214.952 921.777 200.037 938.123 187.748 956.939H183.022Z" fill="#1B1B1B"/>
<path d="M199.135 956.939C292.918 872.016 359.291 744.246 429.55 608.986C441.043 586.858 452.901 564.025 464.9 541.367L470.537 539.449C457.871 563.324 445.338 587.449 433.214 610.793C363.586 744.839 297.764 871.546 205.137 956.939H199.135Z" fill="#1B1B1B"/>
<path d="M220.106 956.939C282.306 906.578 340.374 798.958 407.578 674.393C432.188 628.776 457.609 581.66 484.738 534.625L490.602 532.633C462.643 580.93 436.5 629.384 411.212 676.253C345.132 798.733 287.86 904.879 226.438 956.939H220.106Z" fill="#1B1B1B"/>
<path d="M240.366 956.939C305.847 896.661 350.983 804.2 394.633 714.772C431.922 638.374 467.208 566.087 510.703 527.51H516.907C472.441 564.688 436.443 638.429 398.341 716.491C355.221 804.831 310.656 896.122 246.301 956.939H240.366Z" fill="#1B1B1B"/>
<path d="M259.039 956.939C318.509 891.83 357.246 812.048 395.474 733.987C414.669 694.605 433.145 654.735 455.417 616.825C474.26 586.026 495.995 551.793 531.31 537.126C559.045 526.396 583.719 539.212 608.514 550.379C618.258 554.694 628.853 559.264 639.139 560.888C649.24 562.324 659.792 561.592 669.293 557.869C683.558 552.261 694.428 540.534 701.903 527.51H710.469C702.75 548.471 684.62 566.975 661.379 570.481C637.902 574.273 620.51 563.26 600.692 553.672C572.514 539.893 541.155 532.521 513.995 551.922C502.1 560.3 492.272 571.256 483.413 582.637C474.523 594.152 466.605 606.411 459.154 618.929C422.346 682.104 394.358 749.572 360.023 814.155C333.378 864.413 304.187 913.98 266.024 956.939H259.039Z" fill="#1B1B1B"/>
<path d="M280.744 956.939C349.017 859.764 400.596 752.296 453.586 646.776C470.278 615.941 490.954 575.97 522.591 557.776C544.888 544.787 569.552 548.85 591.492 559.998C611.917 569.728 630.2 583.619 652.504 588.291C688.768 594.38 711.371 555.004 726.456 527.51H735.41C729.418 541.233 722.081 554.399 712.866 566.418C694.736 590.207 669.554 605.561 640.087 589.707C629.978 584.622 620.081 578.725 609.953 573.795C576.404 557.128 538.541 549.601 509.395 577.669C498.633 587.552 489.707 599.355 481.552 611.432C457.789 647.112 437.2 690.084 417.473 728.246C378.122 806.667 335.528 883.694 286.68 956.939H280.744Z" fill="#1B1B1B"/>
<path d="M753.895 527.51C745.088 559.211 728.75 595.844 698.791 613.517C676.236 625.88 661.32 621.502 639.252 611.835C626.872 606.51 609.796 597.819 597.711 591.565C582.874 584.154 567.323 577.537 550.456 578.197C537.81 578.149 525.262 582.515 515.419 590.346C509.602 594.908 504.288 600.142 499.346 605.708C479.621 628.304 465.023 654.862 451.207 681.245C403.59 773.32 369.119 872.801 306.646 956.939H300.134C355.396 885.274 388.672 800.547 427.163 719.759C440.014 692.52 453.185 665.388 468.852 639.516C484.832 613.765 503.44 587.115 532.264 573.692C547.243 567.028 565.433 569.269 579.873 575.855C590.549 580.599 600.13 587.089 610.185 592.825C627.471 602.955 643.076 608.845 663.293 610.076C669.963 610.462 676.664 609.279 683.016 606.929C703.268 599.199 718.213 582.426 729.152 564.457C736.319 552.858 742.104 540.33 747.283 527.51H753.895Z" fill="#1B1B1B"/>
<path d="M767.936 527.51C758.401 568.456 738.901 626.168 695.31 642.79C667.501 652.503 648.89 640.774 626.305 626.66C595.2 607.472 554.208 583.911 518.651 605.137C495.862 620.396 477.699 650.65 464.432 674.11C420.106 754.801 392.549 843.226 346.632 923.172C339.709 934.85 332.306 946.288 323.774 956.939H318.309C327.711 945.897 335.826 933.76 343.297 921.292C381.99 855.046 407.527 782.521 440.275 713.45C458.878 675.118 482.624 624.877 518.321 599.54C557.054 571.878 594.902 603.812 628.673 622.844C644.823 631.894 662.473 640.373 681.476 636.528C715.734 629.792 735.944 598.021 749.34 568.856C755.403 555.457 760.38 541.566 764.682 527.51H767.936Z" fill="#1B1B1B"/>
<path d="M333.358 956.939C369.264 907.281 394.488 851.396 418.761 795.675C437.281 753.63 453.968 710.584 476.883 670.474C486.536 653.765 498 637.64 512.583 624.406C528.721 608.984 548.369 602.581 570.23 610.649C585.453 616.191 597.94 626.005 611.493 634.14C624.61 642.238 638.446 649.349 653.372 653.575C675.099 660.219 696.938 657.862 715.796 645.084C743.7 625.82 760.394 578.207 771.72 547.444C774.167 540.796 776.537 534.119 779.252 527.51H782.563C770.153 555.349 762.023 585.006 747.568 612.029C740.349 625.949 731.408 638.756 720.265 650.175C717.412 653.045 714.293 655.738 710.878 658.14C694.216 670.226 671.749 669.598 653.51 661.478C638.052 654.821 624.257 645.091 609.975 636.512C591.389 625.325 568.471 615.236 546.339 616.949C522.002 619.119 506.005 634.368 492.703 653.165C479.33 671.851 468.792 692.277 458.864 712.9C432.745 768.109 410.949 825.944 383.33 880.51C370.223 906.823 355.763 932.575 339.098 956.939H333.358Z" fill="#1B1B1B"/>
<path d="M348.54 956.939C384.513 907.037 408.584 850.368 432.529 794.312C450.869 752.034 467.071 708.273 492.901 669.497C497.323 663.075 502.127 656.856 507.55 651.108C518.58 639.444 532.069 627.74 549.143 626.597C557.641 625.765 566.072 628.34 573.485 632.009C586.107 637.728 602.38 648.653 614.263 655.935C629.71 665.556 646.077 674.405 663.951 678.564C700.89 685.706 729.746 661.855 746.938 631.56C766.372 598.904 778.257 562.88 791.685 527.51H794.947C776.907 569.742 764.362 614.878 737.812 653.179C698.71 710.844 660.958 691.574 612.341 658.783C602.624 652.33 592.973 645.797 582.431 640.76C578.967 639.056 575.399 637.661 571.684 636.8C557.273 633.855 542.424 634.208 528.94 640.714C495.663 656.482 469.007 720.595 454.042 753.299C423.613 822.397 397.317 894.012 354.199 956.939H348.54Z" fill="#1B1B1B"/>
<path d="M807.706 527.51C795.57 563.08 783.623 598.93 766.798 632.768C756.416 653.467 743.947 673.507 726.706 689.532C720.923 695.191 715.067 701.2 707.666 705.067C692.496 712.958 673.646 711.799 658.275 705.144C636.537 695.642 619.229 678.989 597.96 668.786C593.21 666.377 587.134 663.83 582.128 661.913C573.542 658.625 564.019 658.39 555.036 658.925C547.956 659.321 541.101 660.689 534.439 663.312C520.036 668.683 509.932 680.762 501.396 692.863C488.32 711.652 478.308 732.263 468.906 753.035C450.179 794.869 434.042 837.723 414.743 879.37C402.476 905.985 389.019 932.174 373.118 956.939H367.065C371.248 950.872 375.289 944.704 379.157 938.428C415.297 879.612 438.154 814.494 465.622 751.645C481.052 717.47 501.472 672.53 535.962 653.095C553.79 644.381 567.658 648.881 584.308 657.031C596.642 662.914 608.224 670.661 619.643 677.942C632.408 686.126 646.01 694.197 660.901 697.493C668.002 699.103 675.27 699.708 682.447 699.177C689.537 698.753 696.167 696.739 702.896 694.586C709.612 692.393 716.841 689.781 722.995 685.361C735.112 676.097 744.307 663.715 752.661 651.195C776.769 613.117 791.502 570.236 804.553 527.51H807.706Z" fill="#1B1B1B"/>
<path d="M386.373 956.939C402.077 931.548 413.979 903.938 425.84 876.636C437.493 849.536 449.452 820.03 461.418 793.194C477.137 758.781 492.987 723.544 518.683 694.86C524.01 688.934 529.558 683.256 536.58 679.094C547.241 672.266 561.099 672.396 573.081 675.516C584.685 678.475 595.279 684.506 605.163 690.684C618.157 698.86 630.816 707.611 644.781 714.028C664.296 723.208 687.642 726.806 707.49 717.196C727.154 707.162 741.926 688.91 753.149 670.414C778.897 626.345 796.585 574.998 815.183 527.51H817.381C806.156 554.941 796.094 582.791 785.089 610.316C773.898 638.528 761.612 666.437 745.425 692.364C736.006 707.32 724.234 722.419 706.754 729.251C693.127 734.522 677.137 733.819 663.793 728.589C649.043 723.002 636.268 713.661 623.063 705.501C602.87 692.709 579.752 681.093 555.13 682.113C534.52 683.328 518.24 698.839 507.104 714.818C498.289 727.041 490.742 740.159 483.703 753.503C456.2 806.367 435.414 865.32 410.823 919.524C405.001 932.215 398.908 944.786 391.936 956.939H386.373Z" fill="#1B1B1B"/>
<path d="M403.915 956.939C414.888 941.666 423.475 924.811 431.556 907.908C447.548 873.799 461.739 836.751 476.97 802.251C488.739 775.964 501.117 749.423 518.898 726.314C524.964 718.411 531.375 710.793 539.643 704.863C569.03 683.849 598.295 704.14 623.76 720.34C642.859 732.043 665.646 747.256 688.843 746.277C693.381 745.996 697.707 744.839 701.827 743.087C743.321 729.163 762.26 682.961 777.651 645.823C793.283 606.726 806.418 566.346 822.878 527.51H826.184C819.823 541.809 814.102 556.384 808.546 571.002C799.167 596.17 790.31 621.891 780.679 646.959C768.737 677.15 755.903 708.031 733.56 732.77C725.715 741.088 715.848 747.945 704.68 751.492C701.728 752.908 694.066 754.818 689.168 754.641C664.353 754.708 642.211 734.934 622.048 722.939C606.218 713.15 588.006 703.744 569.196 703.43C545.245 703.298 526.146 721.778 513.727 740.334C500.324 760.204 489.949 781.792 480.148 803.591C464.718 838.071 450.724 875.081 434.879 909.381C427.355 925.663 419.296 941.803 409.239 956.939H403.915Z" fill="#1B1B1B"/>
<path d="M420.609 956.939C437.247 932.896 448.563 905.501 460.086 878.782C479.35 834.788 495.349 788.447 524.757 749.56C534.217 737.553 544.73 724.106 560.87 720.801C581.196 716.625 599.248 729.189 615.277 739.19C621.644 743.195 628.047 747.102 634.625 750.681C649.398 758.795 665.19 764.641 681.628 766.677C693.6 768.179 705.901 765.702 716.239 759.633C718.326 758.428 720.677 756.772 722.586 755.315C731.857 747.904 740.022 739.286 747.115 729.765C755.854 717.859 762.735 704.731 769.281 691.567C794.734 638.703 812.308 582.692 831.649 527.51H834.886C811.081 589.393 792.845 653.604 762.136 712.795C754.866 725.935 747.475 738.959 738.265 751.026C734.094 756.364 729.47 761.641 724.02 765.841C700.735 782.845 676.538 776.644 652.985 764.265C628.091 751.665 601.138 729.115 572.709 727.243C536.092 726.359 513.837 771.721 499.464 799.155C479.626 838.904 464.897 880.81 446.225 921.098C440.514 933.316 434.411 945.422 427.027 956.939H420.609Z" fill="#1B1B1B"/>
<path d="M438.883 956.939C471.776 900.681 488.434 836.672 524.168 781.727C536.154 763.929 545.957 751.538 568.821 747.724C584.623 745.046 599.605 753.388 612.506 760.977C621.681 766.487 631.747 772.722 641.267 777.472C666.528 790.278 696.278 795.812 720.307 777.556C737.339 764.49 749.744 746.327 759.971 727.619C792.569 663.348 811.374 593.67 839.698 527.51H843.019C809.327 599.737 790.691 678.043 753.053 748.634C745.822 761.692 737.743 774.395 726.146 784.477C714.207 794.761 697.429 800.516 681.481 798.063C658.575 794.605 640.491 779.293 620.784 768.726C606.038 760.782 587.2 752.413 570.24 755.665C561.984 757.326 553.698 760.501 547.014 765.541C534.609 775.765 525.501 789.402 517.597 803.202C496.165 841.064 480.776 881.868 462.352 921.182C456.715 933.28 450.824 945.302 444.086 956.939H438.883Z" fill="#1B1B1B"/>
<path d="M456.067 956.939C482.058 914.704 495.709 866.374 520.211 823.292C523.784 817.038 527.63 810.906 531.828 804.93C536.127 798.807 540.781 792.755 546.953 788.231C559.22 778.837 576.269 775.24 591.295 779.389C598.398 781.319 605.282 784.7 611.946 787.734C628.37 795.387 644.291 804.013 661.411 810.056C664.809 811.23 668.199 812.401 671.697 813.145C678.5 814.614 685.6 814.604 692.408 814.496C721.775 814.338 738.361 784.931 751.299 762.993C758.116 750.753 764.221 737.505 769.764 724.629C786.02 686.825 801.47 644.103 816.026 605.427C825.891 579.361 835.845 553.331 846.385 527.51H849.686C838.252 553.372 827.796 579.642 817.748 606.049C794.52 665.198 774.978 727.61 744.829 783.82C741.791 789.183 738.1 794.876 734.358 799.842C724.429 812.994 709.797 822.896 692.509 822.865C684.696 822.934 677.374 819.997 670.391 817.15C666.962 815.737 663.54 814.429 660.206 812.919C632.602 800.531 601.562 779.567 569.925 786.692C560.139 788.963 550.875 793.688 543.772 800.72C531.515 813.426 523.111 829.169 515.055 844.656C495.941 881.558 482.654 921.223 461.015 956.939H456.067Z" fill="#1B1B1B"/>
<path d="M475.041 956.939C496.327 921.256 511.543 882.132 533.564 846.672C541.375 834.704 549.532 822.884 560.693 813.423C581.433 796.345 602.187 803.25 623.39 814.71C649.59 828.19 681.091 846.284 710.76 832.621C726.523 825.243 737.753 811.059 746.632 796.676C761.227 772.883 772.225 747.088 782.472 721.252C805.469 662.798 823.577 602.617 846.941 544.281C849.195 538.667 851.497 533.073 853.891 527.51H857.203C854.534 533.385 851.955 539.305 849.462 545.26C830.712 590.389 815.716 636.843 799.159 682.769C783.31 725.668 753.54 814.359 714.096 838.688C696.758 849.154 676.955 846.344 659.837 837.317C639.585 826.911 620.668 811.995 597.272 809.658C569.952 806.043 550.261 828.214 537.235 848.895C522.216 872.434 510.489 897.883 497.973 922.792C492.24 934.267 486.401 945.715 480.052 956.939H475.041Z" fill="#1B1B1B"/>
<path d="M493.514 956.939C514.88 921.108 542.013 848.532 579.952 830.794C597.459 823.417 616.27 831.766 632.092 839.386C658.578 852.8 678.386 865.21 708.878 853.198C727.642 845.931 742.057 829.256 752.272 812.338C763.014 794.888 771.565 776.264 779.4 757.408C810.47 682.116 829.106 602.614 860.755 527.51H864.072C852.906 552.241 843.839 577.844 835.029 603.462C812.771 667.891 795.183 734.296 764.758 795.743C758.498 807.992 751.402 819.879 743.084 830.931C734.742 842.127 724.749 853.124 711.546 859.035C697.544 865.707 682.932 865.284 668.768 859.738C649.134 852.66 632.371 838.844 611.663 834.644C604.93 833.422 598.184 833.821 591.805 834.845C585.298 835.798 579.356 837.927 573.61 841.095C561.617 847.481 552.883 858.612 545.344 869.585C526.848 897.072 514.118 927.477 499.006 956.939H493.514Z" fill="#1B1B1B"/>
<path d="M512.211 956.939C530.987 927.859 568.532 860.091 603.769 853.546C633.218 848.916 657.732 880.174 692.841 876.437C695.076 876.192 697.251 875.539 699.436 874.879C717.813 869.273 733.202 854.199 743.735 838.301C769.722 799.751 786.042 755.941 802.263 712.852C823.26 655.287 845.394 584.483 868.336 527.51H871.64C841.186 600.646 819.431 677.047 790.504 750.803C773.184 793.235 754.799 838.909 719.982 870.828C713.071 876.807 704.413 881.688 695.024 883.294C690.022 883.87 684.873 883.55 680.022 882.458C666.245 879.358 654.936 871.438 642.539 865.632C630.969 859.949 617.534 855.332 604.698 858.084C592.192 861.106 580.721 869.014 571.9 878.182C562.716 887.729 554.767 898.377 547.305 909.261C536.881 924.712 527.501 940.756 518.292 956.939H512.211Z" fill="#1B1B1B"/>
<path d="M533.979 956.939C535.284 954.849 536.607 952.713 537.953 950.548C557.128 919.632 580.992 881.155 611.446 878.014L611.552 878.004C627.34 877.193 641.607 882.482 655.407 887.602C669.876 892.973 683.545 898.044 699.077 896.875C748.778 889.596 788.634 775.024 827.18 664.224C843.63 616.928 860.635 568.045 878.376 527.51H882.843C864.914 568.208 847.71 617.669 831.067 665.508C811.631 721.382 791.532 779.159 770.346 822.625C746.019 872.532 723.542 897.386 699.609 900.84L699.469 900.857C682.986 902.121 668.223 896.64 653.943 891.341C639.947 886.145 626.729 881.232 611.826 881.998C583.424 884.969 560.161 922.476 541.466 952.617C540.562 954.074 539.667 955.516 538.783 956.939H533.979Z" fill="#1B1B1B"/>
<path d="M556.036 956.939C558.081 954.299 560.134 951.604 562.193 948.897C572.292 935.627 582.734 921.907 594.244 912.396C604.952 903.549 619.352 899.217 633.755 900.523C644.244 901.469 651.903 903.967 660.014 906.612C671.086 910.224 682.572 913.958 702.521 913.809C751.271 909.955 796.464 780.601 840.168 655.503C855.414 611.859 871.175 566.752 886.923 527.51H891.333C875.422 567.006 859.477 612.649 844.054 656.791C822.07 719.723 799.334 784.796 776.264 833.341C749.739 889.157 726.387 915.996 702.772 917.803L702.627 917.808C681.919 917.978 670.115 914.126 658.711 910.406C650.832 907.836 643.391 905.409 633.376 904.505C620.069 903.307 606.77 907.291 596.9 915.446C585.752 924.66 575.451 938.191 565.492 951.28C564.046 953.178 562.607 955.07 561.171 956.939H556.036Z" fill="#1B1B1B"/>
<path d="M580.541 956.939L580.351 956.814C585.148 949.958 590.219 944.083 595.851 938.855C615.1 920.995 643.145 914.817 669.036 922.735L670.291 923.119C680.217 926.162 690.483 929.32 705.677 929.061C753.76 925.363 797.969 797.291 840.723 673.433C858.159 622.928 876.179 570.726 894.309 527.51H898.747C880.451 570.899 862.234 623.669 844.616 674.707C823.107 737.018 800.867 801.45 778.245 849.502C752.227 904.761 729.25 931.312 705.931 933.052L705.81 933.06C689.917 933.302 679.31 930.079 669.059 926.935L667.805 926.551C643.34 919.07 616.852 924.892 598.684 941.752C593.853 946.235 589.445 951.22 585.266 956.939H580.541Z" fill="#1B1B1B"/>
<path d="M608.019 956.939C613.94 949.185 623.036 938.114 645.313 934.811C654.557 933.276 663.542 935.275 673.944 937.593C684.782 940.007 697.069 942.743 711.945 941.596C760.387 932.908 805.043 803.298 848.227 677.95C866.198 625.789 884.775 571.873 903.401 527.51H907.838C889.049 572.039 870.278 626.525 852.12 679.224C830.427 742.194 807.992 807.308 785.175 856.572C758.958 913.176 735.89 941.447 712.576 945.549L712.376 945.575C696.823 946.797 684.181 943.977 673.028 941.491C663.057 939.271 654.441 937.353 645.968 938.759C627.389 941.515 618.906 949.785 613.173 956.939H608.019Z" fill="#1B1B1B"/>
<path d="M648.417 956.939C650.139 955.898 651.795 955.005 653.468 954.22C659.607 951.33 666.545 950.143 673.52 950.774L699.973 953.171C717.348 954.746 733.98 947.702 744.466 934.327C779.047 890.22 817.502 784.254 854.689 681.777C874.077 628.344 894.119 573.119 913.327 527.51H917.769C898.404 573.313 878.149 629.127 858.56 683.109C821.266 785.879 782.706 892.147 747.731 936.753C738.896 948.021 726.042 955.142 711.915 956.939H697.236L673.141 954.755C667.674 954.261 662.243 955.014 657.304 956.939H648.417Z" fill="#1B1B1B"/>
<path d="M734.466 956.939C768.091 936.887 813.459 814.311 857.341 695.736C881.148 631.407 903.654 570.599 923.744 527.51H928.257C908.04 570.539 885.289 632.012 861.204 697.094C819.076 810.932 775.584 928.442 741.367 956.939H734.466Z" fill="#1B1B1B"/>
<path d="M748.51 956.939C779.39 931.303 823.612 809.905 862.655 702.71C889.655 628.58 915.194 558.467 933.5 527.51H938.263C920.092 556.976 894.07 628.419 866.526 704.049C826.825 813.044 785.828 925.588 754.492 956.939H748.51Z" fill="#1B1B1B"/>
<path d="M758.882 956.939C765.396 954.287 784.633 927.532 840.78 782.147C873.311 697.91 902.777 613.685 903.071 612.845C916.353 576.935 944.035 538.456 952.205 527.51H957.3C952.974 533.171 921.329 575.283 906.946 614.168C906.665 614.977 877.179 699.254 844.626 783.548C805.543 884.743 779.412 941.793 765.157 956.939H758.882Z" fill="#1B1B1B"/>
<path d="M971.526 527.85C945.747 558.198 922.122 591.195 907.175 627.972C872.761 721.435 838.51 815.142 799.652 906.991C793.663 920.745 787.666 934.521 780.546 947.795C778.823 950.908 777.074 954.045 774.904 956.939H769.966C770.099 956.836 770.242 956.714 770.37 956.582C770.737 956.229 771.112 955.804 771.474 955.355C773.714 952.494 775.51 949.3 777.288 946.103C784.377 932.978 790.381 919.296 796.373 905.645C820.042 850.719 841.287 794.821 862.497 738.95C876.595 701.656 890.35 664.31 904.103 626.835C915.404 598.83 931.968 573.435 949.82 549.088C955.021 541.996 960.451 535.017 966.081 528.237C966.28 527.992 966.482 527.75 966.684 527.51H971.121L971.526 527.85Z" fill="#1B1B1B"/>
<path d="M779.053 956.939C794.185 933.141 804.695 906.7 815.657 880.874C840.112 821.233 863.273 756.419 885.644 695.728C903.477 647.561 919.735 595.707 955.667 556.991C958.192 554.365 960.937 551.893 963.886 549.702C964.876 548.977 965.829 548.161 967.182 547.96L968.939 550.566C968.291 551.68 967.256 552.193 966.317 552.882C963.469 554.912 960.764 557.103 958.157 559.443C947.551 568.897 939.652 580.796 932.421 592.841C913.241 624.725 900.976 661.886 888.175 696.609C858.696 775.419 831.055 857.513 795.491 933.825C791.628 941.678 787.587 949.466 782.837 956.939H779.053Z" fill="#1B1B1B"/>
<path d="M969.064 573.133C961.225 576.946 954.974 583.606 949.645 590.386C944.176 597.411 939.46 605.002 935.139 612.759C926.41 628.342 919.166 644.698 912.191 661.099C884.735 727.103 862.305 795.044 835.044 861.168C821.732 893.645 807.578 925.864 790.935 956.939H786.966C821.069 894.038 845.774 826.798 870.758 760.064C889.803 709.967 907.138 658.932 932.429 611.336C941.101 596.141 951.185 578.336 967.054 569.305L969.064 573.133Z" fill="#1B1B1B"/>
<path d="M970.562 589.074C963.464 593.697 957.477 599.946 951.929 606.244C944.752 614.629 938.536 623.773 932.938 633.241C922.943 650.091 914.795 667.954 907.958 686.235C907.929 686.163 895.47 721.224 895.445 721.239C874.429 779.193 852.999 838.237 829.458 895.184C822.232 912.382 814.979 929.609 806.055 946.087C804.525 948.612 802.022 953.484 799.13 956.94H793.648C795.493 955.86 796.75 953.916 798.073 952.183C799.819 949.726 801.409 947.09 802.936 944.424C805.989 939.079 808.758 933.543 811.453 927.975C837.769 871.801 858.972 813.462 880.544 755.433C886.881 737.986 899.505 702.747 905.697 685.244C908.7 676.981 912.928 666.802 916.956 658.172C928.425 633.577 942.993 610.146 961.55 589.972C963.38 588.083 965.043 586.29 967.113 584.505C967.113 584.502 970.562 589.074 970.562 589.074Z" fill="#1B1B1B"/>
<path d="M985.798 595.477C950.899 617.569 925.079 659.376 910.321 696.597C884.383 768.297 857.592 842.413 829.008 913.025C824.1 924.924 819.17 936.827 813.557 948.451C812.096 951.311 810.751 954.22 809.031 956.939H805.304C809.825 950.426 812.818 942.707 816.194 935.558C846.333 865.512 872.754 791.523 899.229 719.939C899.229 719.937 907.981 695.8 907.981 695.8C911.186 687.744 914.778 679.958 918.691 672.274C930.492 649.251 945.265 627.682 962.735 608.331C968.665 601.777 974.79 595.395 981.538 589.578L985.798 595.477Z" fill="#1B1B1B"/>
<path d="M813.831 956.939C843.578 892.646 868.77 826.56 893.642 760.35C904.807 731.372 916.128 701.929 930.854 674.428C948.985 639.345 970.006 612.286 1006.65 593.765C1009.02 592.62 1013.74 590.487 1016.08 589.378L1018.85 595.675C1016.62 596.688 1011.8 598.74 1009.69 599.691C1006.78 601.234 1003.68 602.693 1000.82 604.248C989.284 610.757 978.276 618.538 968.949 627.864C966.199 630.451 962.363 634.603 959.825 637.49C958.581 638.817 956.755 641.164 955.583 642.592C949.946 649.435 944.671 656.637 939.938 664.12C930.723 679.017 923.101 695.74 916.062 711.752C882.523 793.126 854.65 876.717 818.059 956.939H813.831Z" fill="#1B1B1B"/>
<path d="M1077.78 595.311C1059 601.46 1039.95 607.023 1021.72 614.562C962.986 637.587 936.159 690.797 914.559 745.173C893.523 799.76 872.345 854.288 849.284 908.105C842.386 923.789 835.81 939.681 827.162 954.578C826.657 955.355 826.16 956.159 825.623 956.939H820.717C822.05 955.761 822.994 954.194 824.004 952.691C832.831 938.14 839.456 922.394 846.486 906.946C854.402 889.126 861.842 871.104 869.236 853.071C880.266 826.009 891.168 798.844 901.412 771.496C911.435 743.973 922.236 716.704 935.784 690.574C949.409 663.593 965.039 638.225 991.674 621.553C1017.16 605.257 1047.29 597.714 1076.04 589.743L1077.78 595.311Z" fill="#1B1B1B"/>
<path d="M1125.92 595.071C1117.49 602.405 1107.3 606.764 1097.05 610.616C1087 614.288 1076.88 617.213 1066.86 620.247C1046.99 626.215 1027.09 632.282 1008.33 641.086C1003.77 643.267 999.191 645.398 994.951 648.122C990.812 650.75 986.759 653.997 983.071 657.237C967.783 670.862 956.576 688.56 947.063 706.449C904.598 787.825 879.574 877.044 833.741 956.939H828.949C839.627 939.443 849.033 921.196 857.883 902.709C884.464 847.023 904.916 788.845 930.527 732.736C939.165 713.997 948.63 695.625 959.865 678.189C966.872 667.315 974.542 656.222 984.461 647.386C990.44 641.921 997.62 637.906 1004.92 634.37C1023.87 625.027 1044 618.195 1064.2 611.996C1074.22 608.89 1084.2 605.844 1093.82 602.304C1103.09 598.87 1112.52 594.841 1119.95 588.601L1125.92 595.071Z" fill="#1B1B1B"/>
<path d="M1154.85 596.873C1135.54 625.167 1099.41 631.45 1068.16 639.288C1047.7 644.383 1027.41 650.741 1008.98 660.713C1004.51 663.134 1000.28 666.014 996.286 669.213C984.105 678.948 974.329 691.144 965.839 704.121C948.825 730.535 936.282 759.347 923.983 788.137C899.732 845.263 878.258 904.125 844.704 956.939H840.262C851.553 939.347 861.403 920.882 870.426 902.049C902.706 836.009 922.305 764.219 960.84 701.066C969.426 687.585 979.299 674.452 991.711 663.917C995.914 660.393 1000.45 657.18 1005.29 654.434C1033.58 638.419 1066.06 632.23 1097.02 623.575C1116.79 617.919 1136.12 609.168 1147.75 592.121L1154.85 596.873Z" fill="#1B1B1B"/>
<path d="M1157.63 619.054C1137.85 645.547 1104.5 650.393 1074.42 658.413C1059.79 662.21 1045.42 666.568 1031.39 672.038C1026.75 673.788 1022.41 675.724 1018.11 678.083C1000.53 687.196 987.631 702.46 976.892 718.465C960.355 743.293 947.674 770.312 935.087 797.266C918.415 833.436 902.782 870.113 885.208 905.92C876.755 923.219 867.849 940.336 857.959 956.939H854.039C894.602 888.043 919.097 811.726 956.093 741.08C964.405 725.562 973.28 710.123 984.194 696.122C995.269 681.619 1010.78 670.442 1028.06 663.964C1051.68 654.353 1076.91 648.506 1101.44 642.041C1120.36 636.991 1138.65 629.376 1150.51 613.759L1157.63 619.054Z" fill="#1B1B1B"/>
<path d="M1182.23 619.028C1150.03 669.127 1090.74 670.339 1040.28 690.345C1024.34 696.851 1010.85 707.618 999.484 720.304C979.617 742.614 965.82 769.187 953.08 795.99C927.639 849.593 908.16 906.331 876.361 956.939H873.242C883.215 939.76 891.868 921.892 899.863 903.748C924.463 848.825 941.951 790.719 974.196 739.194C988.397 717.047 1006.54 696.023 1030.91 683.983C1053.68 673.229 1078.78 668.393 1102.64 661.063C1131.04 652.858 1159.1 639.555 1176.12 615.096L1182.23 619.028Z" fill="#1B1B1B"/>
<path d="M1202.67 618.267C1169.57 666.111 1130.46 685.167 1075.41 700.999C1065.81 704.014 1056.13 706.771 1046.78 710.443C1010.82 726.489 988.678 764.838 970.205 797.555C941.894 849.639 919.779 905.918 889.263 956.94H886.337C902.819 926.63 922.623 880.193 936.777 848.36C953.437 811.667 970.158 774.318 994.855 741.844C1008.4 724.42 1025.01 707.947 1046.55 699.972C1050.11 698.755 1054.06 697.354 1057.65 696.218C1091.19 685.526 1126.19 676.81 1154.85 655.954C1171.04 644.518 1185.05 630.195 1197.37 614.547L1202.67 618.267Z" fill="#1B1B1B"/>
<path d="M602.311 527.51C618.012 539.833 650.716 539.505 668.664 535.516C675.378 533.946 682.099 531.686 687.512 527.51H692.25C689.956 531.266 686.507 534.234 682.836 536.598C662.197 549.234 626.357 549.299 605.9 536.178C602.545 533.896 599.401 531.035 597.324 527.51H602.311Z" fill="#1B1B1B"/>
<path d="M1218.69 619.758C1194.97 651.956 1168.27 685.049 1131.13 703.334C1110.42 713.39 1087.45 716.664 1067.03 726.518L1063.64 728.138C1049.19 734.457 1036.64 743.999 1025.61 755.155C998.181 783.333 978.927 818.487 960.724 853.011C942.941 887.045 925.946 923.513 906.82 956.939H902.289C919.641 921.357 934.926 884.832 952.293 848.989C970.045 813.018 988.917 776.951 1017.4 747.46C1028.26 736.401 1040.88 726.357 1055.17 719.56L1058.69 717.974C1071.33 711.732 1085.4 707.342 1098.71 703.663C1128.24 696.518 1152.65 681.365 1174.49 660.596C1188.6 647.472 1201.68 633.142 1214.53 618.582H1217.13L1218.69 619.758Z" fill="#1B1B1B"/>
<path d="M1236.59 618.581C1209.72 660.454 1175.57 699.674 1130.43 723.484C1121.34 728.255 1111.96 732.539 1102.45 736.202C1088.4 741.815 1074.29 746.104 1061.35 753.407C1022.99 775.645 999.763 816.918 979.099 854.196C960.444 888.559 943.964 924.192 922.29 956.939H920.405C934.229 932.217 947.204 903.348 959.261 877.625C982.164 829.962 1008.29 773.08 1056.22 744.88C1069.57 737.255 1084.71 732.681 1098.71 727.125C1108 723.513 1117.09 719.644 1125.87 715.178C1154.59 700.517 1179.47 679.601 1201.05 656.148C1212.23 644.184 1222.5 631.508 1232.5 618.581H1236.59Z" fill="#1B1B1B"/>
<path d="M1259.49 618.581C1215.05 675.924 1184.62 721.293 1114.33 753.275C1110.05 755.258 1105.3 757.31 1100.9 759.093C1087.92 763.986 1075.24 770.365 1064.54 779.099C1042.57 796.756 1024.95 818.732 1010.07 842.456C991.596 871.769 977.104 903.619 960.042 934.269L952.75 940.293L952.508 940.173C973.142 897.576 990.137 852.744 1018.34 813.983C1035.68 790.72 1056.55 768.465 1083.45 755.69C1087.29 753.796 1092.99 751.59 1097.02 749.98C1098.68 749.346 1101.97 747.986 1103.59 747.278C1123.19 739.017 1141.87 728.697 1159.11 716.421C1182.28 699.96 1202.21 679.704 1220.7 658.395C1232.32 645.192 1243.58 631.551 1255.65 618.581H1259.49Z" fill="#1B1B1B"/>
<path d="M1277.59 618.581C1262.28 637.174 1244.25 659.777 1229.4 678.451C1212.91 699.002 1196.27 719.546 1176.76 737.575C1161.98 751.331 1145.14 763.254 1126.61 771.856C1120.86 774.445 1114.34 777.162 1108.74 779.994C1077.95 795.474 1051.76 818.749 1030.93 845.609C1016.1 864.478 1003.93 885.041 993.537 906.598L989.068 910.289C997.129 885.696 1008.97 862.104 1023.87 840.656C1048.39 805.547 1081.1 777.841 1121.56 761.548C1139.06 753.431 1154.84 742.336 1169.18 729.623C1195.06 706.375 1216.8 679.253 1240.13 653.544C1250.83 641.672 1261.71 629.919 1273.03 618.581H1277.59Z" fill="#1B1B1B"/>
<path d="M1026.24 879.509C1033.58 865.493 1043.03 852.55 1053.36 840.509C1074.16 816.325 1099.79 795.685 1128.79 781.494C1133.87 779.157 1138.3 775.614 1142.66 772.18C1168.37 750.988 1191.22 726.616 1214.25 702.684C1240.21 675.161 1266.12 646.618 1291.54 618.581H1296.72C1289.68 627.217 1281.59 636.927 1274.41 645.524C1241.37 684.67 1207.64 723.144 1170.59 758.894C1163.39 765.69 1156 772.516 1148.21 778.765C1143.74 782.317 1139.07 785.999 1133.9 788.584C1131.75 789.642 1129.54 790.604 1127.4 791.711L1122.29 794.545C1112.05 800.087 1102.29 806.689 1092.96 813.584C1080.57 822.975 1068.87 833.434 1058.23 844.685C1050.03 853.395 1042.18 862.56 1035.14 872.223L1026.29 879.535L1026.24 879.509Z" fill="#1B1B1B"/>
<path d="M1318.1 619.313L1245.8 698.189L1227.59 713.234L1309.49 618.581H1317.23L1318.1 619.313Z" fill="#1B1B1B"/>
<path d="M1018.12 144.263C1071.49 98.0174 1126.67 50.2004 1176.8 0.158508H1160.96C1113.19 47.1548 1061.09 92.3055 1010.62 136.043C888.899 241.514 773.933 341.135 742.193 447.031L743.567 447.42L755.142 443.506C788.757 343.024 900.235 246.415 1018.12 144.263Z" fill="#1B1B1B"/>
<path d="M961.311 96.0375C1008.72 54.5563 1046.23 21.7319 1064.52 0.158508H1049.56C1030.11 21.0527 995.872 51.0115 953.764 87.8535C830.136 196.023 643.522 359.31 611.589 492.06L624.366 487.74C660.162 359.54 840.875 201.411 961.311 96.0375Z" fill="#1B1B1B"/>
<path d="M846.638 277.516C909.821 211.594 987.409 143.936 1049.76 89.5695C1090.25 54.2563 1125.24 23.7502 1149.16 0.158508H1133.15C1109.93 22.3367 1078.27 49.9436 1042.23 81.3736C912.762 194.264 735.456 348.872 711.477 458.064L711.858 458.145L724.101 454.006C736.479 408.384 776.635 350.552 846.638 277.516Z" fill="#1B1B1B"/>
<path d="M973.06 109.842C1023.78 66.1842 1067.62 28.447 1091.49 0.158508H1076.64C1052.29 26.9614 1011.82 61.8018 965.583 101.601C845.993 204.535 682.217 345.508 644.118 481.058L657.208 476.63C698.205 346.436 856.722 209.981 973.06 109.842Z" fill="#1B1B1B"/>
<path d="M990.529 119.49C1044.49 73.0889 1091.13 32.9805 1118.17 0.158508H1103.49C1076.38 30.991 1032.86 68.4138 983.054 111.244C866.531 211.44 721.512 336.138 677.99 468.506L679.675 469.032L691.035 465.189C736.257 338.137 877.029 217.087 990.529 119.49Z" fill="#1B1B1B"/>
<path d="M1092.05 128.423C1140.53 86.7832 1190.66 43.7276 1236.39 0.158508H1220.18C1176.93 40.8549 1130.03 81.1384 1084.58 120.174C960.345 226.874 843.002 327.659 812.924 423.603L813.491 423.771L826.214 419.468C858.994 328.6 972.279 231.288 1092.05 128.423Z" fill="#1B1B1B"/>
<path d="M882.855 294.225C928.668 245.678 985.096 197.264 1044.84 146.01C1100.21 98.4926 1157.48 49.3628 1205.41 0.158508H1189.76C1143.73 46.4876 1089.71 92.8455 1037.37 137.754C917.776 240.365 804.813 337.285 781.529 432.857L784.556 433.555L793.828 430.421C804.969 390.469 834.139 345.848 882.855 294.225Z" fill="#1B1B1B"/>
<path d="M1215.84 144.987C1270.99 98.1302 1328.02 49.6796 1376.47 0.158508H1360.78C1314.34 46.6916 1260.55 92.4087 1208.42 136.695C1114.33 216.631 1025.46 292.132 987.7 364.628L987.964 364.758L1003.33 359.562C1042.88 291.93 1127.01 220.452 1215.84 144.987Z" fill="#1B1B1B"/>
<path d="M1183.22 149.794C1238.49 101.485 1295.64 51.5299 1346.76 0.158508H1330.97C1282.1 48.578 1228.05 95.8335 1175.68 141.608C1076.67 228.149 983.149 309.902 954.74 375.994L969.52 370.995C1001.43 308.706 1089.86 231.401 1183.22 149.794Z" fill="#1B1B1B"/>
<path d="M1123.48 152.634C1179.57 103.833 1237.56 53.3731 1287.29 0.158508H1271.93C1224.18 50.2532 1169.21 98.0942 1115.96 144.431C1016.75 230.753 923.017 312.323 883.341 400.145L898.168 395.129C939.211 312.978 1028.83 234.991 1123.48 152.634Z" fill="#1B1B1B"/>
<path d="M1125.27 124.65C1177.98 79.0769 1227.76 36.0261 1261.55 0.158508H1246.09C1212.98 34.0965 1166.64 74.1713 1117.78 116.423C1006.45 212.688 880.271 321.796 844.43 412.988L844.879 413.153L858.511 408.543C897.64 321.484 1018.37 217.092 1125.27 124.65Z" fill="#1B1B1B"/>
<path d="M1255.61 134.192C1303.48 94.1631 1352.97 52.7731 1406.65 0.158508H1390.67C1340.35 48.8228 1293.57 87.9495 1248.25 125.843C1168.83 192.267 1093.8 255.012 1022.86 352.957L1041.4 346.686C1108.52 257.217 1176.95 199.973 1255.61 134.192Z" fill="#1B1B1B"/>
<path d="M1160.92 144.085C1220.43 93.2319 1276.65 45.1892 1316.51 0.158508H1301.48C1262.6 42.5612 1209.5 87.9351 1153.47 135.817C1054.52 220.373 952.207 307.804 919.018 388.078L933.513 383.175C969.459 307.698 1066.72 224.578 1160.92 144.085Z" fill="#1B1B1B"/>
<path d="M361.555 522.542L321.103 558.834V590.231H321.347L329.315 587.533V551.466L349.904 532.994C345.526 554.178 347.197 579.952 347.3 581.452L355.376 578.721C354.99 570.277 354.162 539.563 361.555 522.542Z" fill="#1B1B1B"/>
<path d="M486.598 410.358L420.247 469.887L426.939 463.884C413.728 501.828 404.55 555.65 403.417 562.47L412.262 559.48C415.307 542.229 426.357 483.346 440.469 451.743L467.337 427.64C439.738 483.526 437.336 547.641 437.235 550.821L437.809 550.838L445.592 548.207C446.513 533.164 452.579 461.988 486.598 410.358Z" fill="#1B1B1B"/>
<path d="M1457.02 156.74C1511.29 110.209 1578.79 52.3243 1627 0.158508H1611.7C1564.51 49.91 1501.05 104.327 1449.56 148.484C1400.54 190.52 1361.82 223.721 1347.43 243.005L1347.59 243.12L1365.84 236.95H1367.49C1386.21 217.464 1419.56 188.868 1457.02 156.74Z" fill="#1B1B1B"/>
<path d="M304.236 596.016V573.965L296.022 581.333V598.793L304.236 596.016Z" fill="#1B1B1B"/>
<path d="M1920 204.957L1919.85 204.727C1907.38 212.459 1895.19 225.374 1889.4 236.949H1898.73C1903.6 228.899 1911.51 220.497 1920 214.341V204.957Z" fill="#1B1B1B"/>
<path d="M387.208 537.121C388.388 516.392 391.857 500.418 397.285 490.485L384.003 502.403C376.387 530.55 378.883 568.033 379.073 570.704L387.137 567.975C386.883 563.12 386.42 550.967 387.208 537.121Z" fill="#1B1B1B"/>
<path d="M895.874 101.197C942.675 61.6338 983.125 27.4414 1006.4 0.158508H995.589C972.178 26.1022 934.111 58.2835 890.49 95.1543C767.522 199.099 599.228 341.372 551.71 512.313L561.151 509.121C609.997 342.863 774.982 203.388 895.874 101.197Z" fill="#1B1B1B"/>
<path d="M576.739 404.012C597.304 367.947 623.952 331.722 658.203 293.267C722.108 221.515 800.849 154.858 884.213 84.2872C916.554 56.9107 949.995 28.603 982.25 0.158508H969.978C939.881 26.5534 908.885 52.8043 878.827 78.2488C795.237 149.01 716.283 215.847 651.999 288.023C617.371 326.903 590.406 363.572 569.56 400.126C546.201 441.089 531.014 480.95 523.13 521.98L532.118 518.939C540.069 480.35 554.676 442.702 576.739 404.012Z" fill="#1B1B1B"/>
<path d="M537.383 364.794L548.455 354.86L508.9 390.349L513.283 386.418C498.279 412.616 487.887 441.067 481.018 464.364C468.615 506.407 464.658 541.223 464.621 541.571L465.07 541.617L473.247 538.852C475.915 519.359 490.942 424.565 537.383 364.794Z" fill="#1B1B1B"/>
<path d="M942.251 86.3536C989.528 46.0412 1023.89 16.7375 1036.34 0.158508H1021.77C1006.51 16.9391 974.243 44.4548 934.813 78.076C872.712 131.029 787.663 203.549 717.991 278.359C634.859 367.623 591.15 440.544 584.367 501.268L596.269 497.243C615.863 364.659 819.741 190.815 942.251 86.3536Z" fill="#1B1B1B"/>
<path d="M621.797 304.943C679.34 237.989 751.422 176.684 827.741 111.779C869.258 76.4705 912.186 39.9573 955.711 0.158508H943.814L639.21 273.441C569.767 348.003 516.22 429.195 490.543 533.003L499.794 529.871C520.613 449.086 559.478 377.456 621.797 304.943Z" fill="#1B1B1B"/>
<path d="M1358.09 119.228C1411.3 73.5713 1461.55 30.4438 1491.24 0.158508H1475.47C1445.51 29.5462 1399.31 69.1937 1350.62 110.975C1260.3 188.475 1166.94 268.598 1139.79 313.405L1157.46 307.43C1191.73 261.981 1279.68 186.509 1358.09 119.228Z" fill="#1B1B1B"/>
<path d="M1731.53 135.174C1780.65 94.2327 1836.31 47.8412 1882.57 0.158508H1871.2C1826.33 45.6092 1773.26 89.8647 1726.19 129.095C1673.23 173.23 1627.5 211.349 1611.21 236.837L1611.39 236.95H1621C1638.77 212.489 1681.94 176.499 1731.53 135.174Z" fill="#1B1B1B"/>
<path d="M1804.67 148.959C1841.36 117.781 1882.68 82.6545 1920 49.9021V39.1286C1881.33 73.1866 1837.74 110.233 1799.27 142.93C1751.77 183.309 1710.72 218.193 1691.18 236.949H1703.01C1724.11 217.43 1761.75 185.443 1804.67 148.959Z" fill="#1B1B1B"/>
<path d="M1808.21 121.499C1855.05 82.4875 1896.04 48.343 1920 21.2353V8.95708L1919.85 8.83948C1897.76 36.3936 1853.79 73.0124 1802.88 115.418C1758.43 152.435 1708.07 194.381 1664.77 236.95H1676.39C1718.12 196.546 1765.86 156.776 1808.21 121.499Z" fill="#1B1B1B"/>
<path d="M1768.85 128.492C1830.36 75.4289 1883.51 29.5654 1907.43 0.158508H1896.82C1871.62 29.1382 1821.22 72.6281 1763.4 122.504C1720.07 159.891 1675.26 198.55 1634.2 236.95H1646.09C1685.32 200.559 1727.75 163.952 1768.85 128.492Z" fill="#1B1B1B"/>
<path d="M1709.27 107.197C1763.45 62.2266 1810.25 23.3783 1822.78 0.158508H1813.27C1798.65 22.4879 1754.56 59.0899 1703.94 101.109C1652.65 143.682 1594.52 191.936 1554.28 236.302L1555.03 236.95H1564.71C1604.36 194.283 1659.98 148.107 1709.27 107.197Z" fill="#1B1B1B"/>
<path d="M1747.93 95.7975C1800.07 51.8467 1841.29 17.0951 1851.04 0.158508H1841.25C1828.34 17.4311 1788.33 51.1579 1742.56 89.7495C1687.5 136.167 1625.1 188.77 1579.78 236.95H1590.97C1635.5 190.587 1695.1 140.341 1747.93 95.7975Z" fill="#1B1B1B"/>
<path d="M1920 143.379V132.942C1883.67 162.36 1843.37 199.265 1806.44 236.949H1817.82C1851.25 203.218 1887.09 170.396 1920 143.379Z" fill="#1B1B1B"/>
<path d="M1920 167.048V156.764C1888.49 181.287 1857.83 210.452 1835.7 236.95H1846.37C1866.47 213.711 1892.73 188.77 1920 167.048Z" fill="#1B1B1B"/>
<path d="M1677.09 110.591C1735.11 61.4394 1780.94 22.6031 1793.43 0.158508H1783.84C1768.97 22.1423 1723.68 60.5154 1671.7 104.555C1623.73 145.191 1569.38 191.242 1523.75 236.95H1535.27C1579.47 193.313 1631.2 149.468 1677.09 110.591Z" fill="#1B1B1B"/>
<path d="M1920 75.4431V65.2289C1863.96 108.359 1798.75 164.537 1720.65 236.949H1732.57C1805.38 169.659 1866.83 116.708 1920 75.4431Z" fill="#1B1B1B"/>
<path d="M1920 99.9969V89.9938C1857.19 135.708 1798.8 186.506 1751.1 236.949H1762.31C1806.92 190.538 1862.46 142.299 1920 99.9969Z" fill="#1B1B1B"/>
<path d="M1793.23 235.739C1836.04 193.896 1880.24 150.694 1920 120.677V110.602C1878.52 141.039 1832.2 186.309 1787.41 230.092L1780.39 236.949H1791.99L1793.23 235.739Z" fill="#1B1B1B"/>
<path d="M1920 192.816V183.009C1893.85 200.515 1872.49 224.068 1861.8 236.949H1872.45C1882.94 224.85 1899.83 207.189 1920 192.816Z" fill="#1B1B1B"/>
<path d="M1349.32 152.842C1405.44 106.588 1469.03 54.1747 1516.57 0.158508H1501.59C1455.63 50.8075 1397.92 98.375 1342.03 144.445C1271.59 202.505 1210.72 252.681 1188.08 297.071L1204.14 291.64C1229.87 251.299 1288.04 203.355 1349.32 152.842Z" fill="#1B1B1B"/>
<path d="M1380.02 152.55C1440.73 101.665 1503.5 49.058 1545.37 0.158508H1530.54C1489.36 46.3844 1430.09 96.0735 1372.65 144.212C1308.86 197.679 1248.6 248.179 1227.8 283.372L1228.1 283.538L1245.11 277.783C1269.96 244.797 1323.57 199.856 1380.02 152.55Z" fill="#1B1B1B"/>
<path d="M1413.55 147.073C1466.95 101.829 1527.44 50.5628 1573.27 0.158508H1558.09C1513.62 47.6876 1456.69 95.9439 1406.14 138.774C1344.31 191.168 1290.9 236.429 1274.07 267.988L1290.95 262.279C1312.11 233.047 1359.57 192.821 1413.55 147.073Z" fill="#1B1B1B"/>
<path d="M1285.79 136.259C1340.6 88.6743 1392.37 43.7228 1432.25 0.158508H1417.02C1378.54 40.9965 1329.75 83.356 1278.28 128.048C1199.04 196.839 1117.11 267.974 1071.22 336.565L1071.25 336.587L1089.08 330.556C1135.39 266.841 1211.77 200.52 1285.79 136.259Z" fill="#1B1B1B"/>
<path d="M1644.42 114.08C1702.16 64.0338 1752.03 20.8103 1766 0.374506L1765.67 0.158508H1756.01C1739.15 21.2639 1692.47 61.7298 1638.96 108.105C1592.1 148.722 1539.11 194.66 1495.41 236.95H1507.08C1549.44 196.4 1599.73 152.814 1644.42 114.08Z" fill="#1B1B1B"/>
<path d="M1320.13 127.084C1366.94 86.9368 1415.35 45.4244 1462.52 0.158508H1446.38C1402.03 42.1916 1356.64 81.1144 1312.67 118.828C1225.87 193.27 1150.91 257.56 1108.42 323.721L1108.73 323.913L1125.64 318.193C1168.36 257.258 1239.03 196.637 1320.13 127.084Z" fill="#1B1B1B"/>
<path d="M1434.17 149.341C1488.79 103.753 1550.69 52.0963 1599.58 0.158508H1584.16C1536.9 49.1156 1478.58 97.7894 1426.82 140.987C1368.95 189.286 1318.96 230.995 1303.99 257.479L1304.44 257.716L1321.34 252C1341.2 226.934 1384.75 190.577 1434.17 149.341Z" fill="#1B1B1B"/>
<path d="M1586.6 140.771C1636.41 98.4158 1692.84 50.4236 1738.6 0.158508H1727.57C1683.05 48.1244 1629.06 94.0455 1581.2 134.744C1533.26 175.51 1491.82 210.761 1473.21 236.95H1483.36C1502.81 212.031 1541.85 178.825 1586.6 140.771Z" fill="#1B1B1B"/>
<path d="M1588.57 117.964C1644.32 70.1081 1692.47 28.7782 1711.64 0.163308L1711.64 0.158508H1697.85C1677.07 27.3286 1632.34 65.7306 1581.1 109.713C1535.72 148.662 1484.31 192.8 1440.76 236.95H1456.5C1498.04 195.67 1545.98 154.522 1588.57 117.964Z" fill="#1B1B1B"/>
<path d="M1538.74 108.424C1592.91 61.3722 1639.78 20.6567 1654.52 0.158508H1640.25C1622.18 21.2087 1579.65 58.1515 1531.23 100.213C1481.25 143.629 1424.61 192.826 1380.6 236.95H1396.42C1438.95 195.113 1491.79 149.209 1538.74 108.424Z" fill="#1B1B1B"/>
<path d="M1583.16 95.4063C1632.29 52.4683 1671.18 18.4703 1686.37 0.158508H1671.41C1653.38 19.2527 1616.97 51.0812 1575.62 87.22C1522.34 133.796 1461.95 186.579 1411.51 236.95H1427.35C1475.9 189.171 1532.72 139.501 1583.16 95.4063Z" fill="#1B1B1B"/>
<path d="M211.557 543.522L141.823 526.725L144.607 507.76L128.391 402.713L191.763 410.967L211.557 543.522ZM135.371 521.221L64.4884 434.22L53.2488 360.099L76.8565 396L120.975 401.746L137.344 507.784L135.371 521.221ZM123.03 605.223L59.4082 525.784L69.4233 467.928L69.5194 467.383L66.5876 448.056L133.969 530.759L123.03 605.223ZM34.1227 233.983L76.9156 295.909L105.167 299.353L119.864 394.539L81.1114 389.492L50.6915 343.232L34.1227 233.983ZM18.8352 133.172L21.703 116.809L76.1716 197.167L89.668 198.941L104.059 292.163L81.0522 289.36L31.6886 217.922L18.8352 133.172ZM36.0174 35.1932L78.692 96.6421L99.0943 99.1093L85.9428 173.624L85.8442 174.178L88.5544 191.731L80.3698 190.656L23.4744 106.715L36.0174 35.1932ZM106.232 99.9709L177.235 108.553L161.314 201.288L95.9727 192.706L93.1246 174.252L106.232 99.9709ZM123.712 0.90959L194.372 8.7263L178.422 101.644L107.451 93.0662L123.712 0.90959ZM201.522 9.51589L213.782 10.8719L263.786 86.711L252.098 152.641L219.16 106.568L185.56 102.505L201.522 9.51589ZM237.552 234.701L217.869 208.716L168.441 202.224L184.372 109.417L215.095 113.13L250.359 162.454L237.552 234.701ZM256.875 366.817L218.027 306.054L182.719 301.751L168.922 209.352L213.893 215.258L236.677 245.335L256.875 366.817ZM111.465 293.066L97.0863 199.915L161.513 208.378L175.32 300.849L111.465 293.066ZM190.689 403.764L127.28 395.506L112.576 300.256L176.394 308.034L190.689 403.764ZM198.095 404.729L183.791 308.937L213.737 312.587L259.45 384.087H259.746L268.327 435.708V391.92L267.026 384.087H268.327V377.089H265.863L246.005 257.647L268.327 287.116V275.325L243.492 242.541L243.475 242.433L256.203 170.629L268.327 187.589V175.34L257.942 160.813L268.327 102.224V61.0865L265.594 76.5039L217.983 4.29115L202.71 2.60397L203.156 0L195.87 0L195.56 1.81198L179.178 0L115.483 0L116.562 0.119999L100.311 92.2022L82.8138 90.0878L37.7666 25.2189L42.1915 0L34.8988 0L31.9472 16.8382L20.2543 0L11.5794 0L30.198 26.8101L17.6821 98.1709L0.162415 72.3232L0.19198 85.0695L15.9132 108.263L11.5573 133.091L22.3805 204.454L0.391543 172.632L0.418644 185.208L24.8147 220.514L41.2479 328.876L0.603426 267.064L0.632991 280.086L43.8077 345.743L55.5623 423.264L38.8704 402.776L0.894148 395.376L0.911394 402.519L34.8791 409.138L57.6614 437.1L62.244 467.308L53.4164 518.303L45.2367 508.089L1.12574 498.1L1.14299 505.29L41.1346 514.348L51.7977 527.661L34.6574 626.681L1.39922 582.166L1.31791 582.224L1.34501 593.986L32.9869 636.341L23.4646 691.355L31.2081 688.723L38.9024 644.261L63.838 677.637L70.9262 675.228L40.5753 634.601L57.7895 535.144L121.618 614.837L114.944 660.273L122.584 657.677L127.75 622.498L138.916 636.435L166.217 642.85L178.747 638.594L143.038 630.204L129.164 612.881L140.798 533.687L211.734 550.775L196.203 632.662L204.013 630.007L218.778 552.169L268.327 560.118V553.026L219.059 545.13L199.172 411.929L210.466 413.4L268.327 489.431V477.676L214.43 406.855L198.095 404.729Z" fill="#1B1B1B"/>
<path d="M6.10352e-05 1080H817.083V956.939H6.10352e-05V1080Z" fill="#1B1B1B"/>
<path d="M1151.3 618.582H1394.6V594.498H1151.3V618.582Z" fill="#1B1B1B"/>
<path d="M1726.93 406.157L1680.61 463.565L1223.15 716.906L1517.2 473.974L1726.93 406.157Z" fill="#1B1B1B"/>
</svg>
