<svg width="150" height="50" viewBox="0 0 150 50" fill="none" xmlns="http://www.w3.org/2000/svg">
<path fill-rule="evenodd" clip-rule="evenodd" d="M21.1424 5.51355H52.3671C60.8928 5.51355 67.8679 12.4711 67.8679 20.9746V28.5893C67.8679 37.0931 60.8928 44.0503 52.3671 44.0503H21.1424C12.6167 44.0503 5.6416 37.0931 5.6416 28.5893V20.9746C5.6416 12.4711 12.6167 5.51355 21.1424 5.51355Z" fill="url(#paint0_linear_77_1164)"/>
<path fill-rule="evenodd" clip-rule="evenodd" d="M67.8682 22.6216V22.0532C67.8682 10.1743 61.6034 0 46.3283 0H21.5399C6.04048 0.568322 0 10.174 0 22.0532V22.5649C0 15.0623 3.19101 8.75277 10.9408 6.42257C12.9543 5.86827 15.3155 5.52453 17.9503 5.51359L38.6353 5.51331C38.9203 5.51331 39.1483 5.51331 39.4331 5.51331H49.8612C62.8535 5.51331 67.8682 13.1864 67.8682 22.6216Z" fill="url(#paint1_linear_77_1164)"/>
<path fill-rule="evenodd" clip-rule="evenodd" d="M67.8681 24.7821V22.1101C67.8681 10.2312 61.8276 0.568846 46.3282 0.000244141L51.9698 0.0571612C67.4692 0.625483 73.5094 10.2312 73.5094 22.1107V24.7821L73.4529 26.9993C73.4529 34.445 70.4201 40.7983 62.5688 43.1411C60.5298 43.7725 58.1806 44.0506 55.5026 44.0506H34.8173C34.5323 44.0506 34.3046 44.0506 34.0193 44.0506L49.861 44.0504C62.7965 44.0504 67.811 36.377 67.811 26.9421L67.8681 24.7821Z" fill="url(#paint2_linear_77_1164)"/>
<path fill-rule="evenodd" clip-rule="evenodd" d="M5.64161 24.7821L5.64301 22.6218C5.64301 13.1869 10.7131 5.51383 23.6486 5.51383C23.6486 5.51383 23.6486 5.51355 18.007 5.51355C15.329 5.51355 12.9926 5.85449 10.9408 6.42281C3.19101 8.75329 0 15.1192 0 22.5652V24.7821V27.4535C0 39.333 6.04048 48.9384 21.5399 49.5067L27.1815 49.5637C11.6821 48.995 5.64161 39.333 5.64161 27.4538V24.7821Z" fill="url(#paint3_linear_77_1164)"/>
<path fill-rule="evenodd" clip-rule="evenodd" d="M5.64136 26.9424V27.5107C5.64136 39.3897 11.6816 48.9953 27.1812 49.5639H51.9697C67.4691 48.9956 73.448 39.3857 73.448 27.5065L73.4528 26.9996C73.4528 34.5022 70.3753 40.8109 62.6255 43.1411C60.5741 43.7663 58.2376 44.0506 55.5593 44.0506L34.8743 44.0509C34.5892 44.0509 34.3613 44.0509 34.0765 44.0509H23.6484C10.6561 44.0509 5.64136 36.3776 5.64136 26.9424Z" fill="url(#paint4_linear_77_1164)"/>
<path fill-rule="evenodd" clip-rule="evenodd" d="M24.3651 21.6537C28.3367 21.6537 31.5561 24.8651 31.5561 28.8265H17.1738C17.1738 24.8651 20.3935 21.6537 24.3651 21.6537Z" fill="white"/>
<path fill-rule="evenodd" clip-rule="evenodd" d="M48.1978 21.6537C52.1695 21.6537 55.3891 24.8651 55.3891 28.8265H41.0068C41.0068 24.8651 44.2262 21.6537 48.1978 21.6537Z" fill="white"/>
<path d="M92.4016 21.2154C95.8473 21.2154 97.9662 19.3778 98.5188 17.1353V13.276H92.4387V15.757H95.7551V16.9517C95.4051 17.7788 94.3181 18.6424 92.4016 18.6424C89.7852 18.6424 88.1455 16.823 88.1455 14.1398C88.1455 11.4748 89.7852 9.65549 92.2175 9.65549C93.8757 9.65549 95.092 10.6295 95.571 11.9529L98.0952 10.74C97.3767 8.7182 95.1839 7.08276 92.2175 7.08276C88.2374 7.08276 85.2893 10.0598 85.2893 14.1398C85.2893 18.2013 88.2743 21.2154 92.4016 21.2154ZM109.519 15.6836C109.519 12.9084 107.345 10.74 104.526 10.74C101.651 10.74 99.4403 12.9636 99.4403 15.9592C99.4403 18.863 101.522 21.2154 104.71 21.2154C106.774 21.2154 108.432 20.2413 109.04 18.7711L106.829 17.7236C106.442 18.4035 105.723 18.8263 104.747 18.8263C103.383 18.8263 102.481 18.0177 102.315 16.7495H109.39C109.482 16.4739 109.519 16.0879 109.519 15.6836ZM102.37 14.728C102.646 13.5701 103.439 12.9451 104.526 12.9451C105.668 12.9451 106.479 13.6621 106.589 14.728H102.37ZM115.452 21.1052C115.876 21.1052 116.373 21.0685 116.742 21.0132V18.8448C116.484 18.8812 116.263 18.8998 116.097 18.8998C114.936 18.8998 114.383 18.4035 114.383 17.3745V13.3497H116.742V10.9604H114.383V7.94632H111.62V9.41661C111.62 10.4459 111.048 10.9604 110.017 10.9604H109.887V13.3497H111.62V17.3745C111.62 19.7269 113.02 21.1052 115.452 21.1052Z" fill="white"/>
<path d="M100.601 25.718L98.2611 35.6607L96.05 25.718H92.5861L90.375 35.6607L88.0348 25.718H84.9211L88.3114 39.4099H92.0334L94.226 29.6879L96.4185 39.4099H100.141L103.531 25.718H100.601ZM104.729 28.4747H107.492V25.718H104.729V28.4747ZM104.729 39.4099H107.492V29.3752H104.729V39.4099ZM116.779 25.718V30.2206C116.097 29.5407 115.084 29.1549 113.886 29.1549C111.03 29.1549 108.782 31.452 108.782 34.3926C108.782 37.3146 110.975 39.6302 113.904 39.6302C115.139 39.6302 116.244 39.226 116.963 38.4541V39.4099H119.543V25.718H116.779ZM114.236 37.1492C112.725 37.1492 111.638 36.0098 111.638 34.3926C111.638 32.7936 112.725 31.6359 114.236 31.6359C115.728 31.6359 116.779 32.7753 116.779 34.3926C116.779 36.0283 115.728 37.1492 114.236 37.1492ZM128.829 29.3752V30.4412C128.129 29.6326 127.097 29.1549 125.789 29.1549C123.228 29.1549 120.832 30.9742 120.832 34.0065C120.832 36.9656 123.117 38.9136 125.844 38.9136C126.968 38.9136 127.945 38.5643 128.645 37.9029V38.8769C128.645 40.1817 127.613 41.0086 126.231 41.0086C125.015 41.0086 124.167 40.3654 123.854 39.2812L121.496 40.4388C122.085 42.2767 123.928 43.4899 126.231 43.4899C129.032 43.4899 131.409 41.6888 131.409 38.8769V29.3752H128.829ZM126.194 36.4141C124.776 36.4141 123.688 35.44 123.688 34.0435C123.688 32.6099 124.812 31.6359 126.194 31.6359C127.576 31.6359 128.645 32.6099 128.645 34.0435C128.645 35.44 127.613 36.4141 126.194 36.4141ZM142.777 34.0984C142.777 31.3233 140.603 29.1549 137.784 29.1549C134.91 29.1549 132.699 31.3785 132.699 34.3741C132.699 37.2779 134.781 39.6302 137.968 39.6302C140.032 39.6302 141.69 38.6562 142.298 37.1859L140.087 36.1385C139.7 36.8184 138.982 37.2412 138.005 37.2412C136.641 37.2412 135.739 36.4326 135.573 35.1644H142.648C142.74 34.8888 142.777 34.5027 142.777 34.0984ZM135.628 33.1429C135.904 31.985 136.697 31.36 137.784 31.36C138.926 31.36 139.737 32.0769 139.847 33.1429H135.628ZM148.71 39.5201C149.134 39.5201 149.632 39.4833 150 39.4281V37.2597C149.742 37.2961 149.521 37.3146 149.355 37.3146C148.194 37.3146 147.641 36.8184 147.641 35.7894V31.7646H150V29.3752H147.641V26.3612H144.878V27.8315C144.878 28.8607 144.306 29.3752 143.275 29.3752H143.145V31.7646H144.878V35.7894C144.878 38.1417 146.278 39.5201 148.71 39.5201Z" fill="#AA7EDA"/>
<defs>
<linearGradient id="paint0_linear_77_1164" x1="36.7548" y1="5.51355" x2="36.7548" y2="44.0503" gradientUnits="userSpaceOnUse">
<stop stop-color="#341C2F"/>
<stop offset="0.208333" stop-color="#1C2134"/>
<stop offset="0.901042" stop-color="#1C2134"/>
<stop offset="1" stop-color="#341C2F" stop-opacity="0.87"/>
</linearGradient>
<linearGradient id="paint1_linear_77_1164" x1="56.5717" y1="4.14384" x2="0.617989" y2="4.13773" gradientUnits="userSpaceOnUse">
<stop stop-color="#965ED2"/>
<stop offset="0.432292" stop-color="#BE9AE3"/>
<stop offset="1" stop-color="white"/>
</linearGradient>
<linearGradient id="paint2_linear_77_1164" x1="67.8299" y1="49.5173" x2="67.8307" y2="0.000244898" gradientUnits="userSpaceOnUse">
<stop stop-color="#965ED2"/>
<stop offset="0.552083" stop-color="#BE9AE3"/>
<stop offset="1" stop-color="white"/>
</linearGradient>
<linearGradient id="paint3_linear_77_1164" x1="1.7082" y1="5.51355" x2="1.70994" y2="51.6111" gradientUnits="userSpaceOnUse">
<stop stop-color="#965ED2"/>
<stop offset="0.478431" stop-color="#BE9AE3"/>
<stop offset="1" stop-color="white"/>
</linearGradient>
<linearGradient id="paint4_linear_77_1164" x1="73.6813" y1="46.3987" x2="5.64136" y2="46.3987" gradientUnits="userSpaceOnUse">
<stop stop-color="white"/>
<stop offset="0.509804" stop-color="#BE9AE3"/>
<stop offset="1" stop-color="#965ED2"/>
</linearGradient>
</defs>
</svg>
