<svg width="188" height="39" viewBox="0 0 188 39" fill="none" xmlns="http://www.w3.org/2000/svg">
<g clip-path="url(#clip0_77_1193)">
<path d="M93.5016 6.2574H90.0509L91.7975 17.4351L91.8813 18.0364L92.9912 25.2352C94.0559 32.2844 91.2007 35.6215 85.663 35.6215C81.6167 35.6215 78.38 32.451 78.38 28.5724H74.9292C74.9292 34.3278 79.6999 38.999 85.663 38.999C92.9048 38.999 97.847 34.4111 96.4406 25.2352L93.5016 6.2574ZM111.776 5.8396C105.727 5.8396 101.126 10.0527 100.743 15.8511L99.252 6.2574H95.8026L99.9765 33.3686H103.427L101.51 20.9388C103.128 24.902 107.006 27.5298 111.776 27.5298C118.124 27.5298 122.852 22.9002 122.852 16.6841C122.852 10.4705 118.124 5.8396 111.776 5.8396ZM111.776 24.276C107.346 24.276 104.023 21.0221 104.023 16.6841C104.023 12.3473 107.346 9.09346 111.776 9.09346C116.207 9.09346 119.486 12.3473 119.486 16.6841C119.486 21.0221 116.207 24.276 111.776 24.276ZM148.581 6.2574H145.13L146.067 12.4723C144.492 8.50907 140.615 5.8396 135.801 5.8396C129.454 5.8396 124.726 10.4705 124.726 16.6841C124.726 22.9002 129.454 27.5298 135.801 27.5298C141.893 27.5298 146.451 23.2751 146.834 17.478L148.326 27.112H151.775L148.581 6.2574ZM135.801 24.276C131.371 24.276 128.092 21.0221 128.092 16.6841C128.092 12.3473 131.371 9.09346 135.801 9.09346C140.232 9.09346 143.554 12.3473 143.554 16.6841C143.554 21.0221 140.232 24.276 135.801 24.276Z" fill="white"/>
<path d="M93.2572 6.70796H89.8065L91.5531 17.8856L91.6369 18.4869L92.7468 25.6858C93.8115 32.7349 90.9563 36.0721 85.4186 36.0721C81.3723 36.0721 78.1356 32.9015 78.1356 29.0229H74.6848C74.6848 34.7784 79.4555 39.4496 85.4186 39.4496C92.6604 39.4496 97.6026 34.8617 96.1962 25.6858L93.2572 6.70796ZM111.532 6.29016C105.482 6.29016 100.882 10.5033 100.499 16.3016L99.0076 6.70796H95.5582L99.7321 33.8191H103.183L101.266 21.3894C102.884 25.3526 106.761 27.9804 111.532 27.9804C117.879 27.9804 122.607 23.3508 122.607 17.1346C122.607 10.9211 117.879 6.29016 111.532 6.29016ZM111.532 24.7265C107.101 24.7265 103.778 21.4727 103.778 17.1346C103.778 12.7979 107.101 9.54402 111.532 9.54402C115.962 9.54402 119.242 12.7979 119.242 17.1346C119.242 21.4727 115.962 24.7265 111.532 24.7265ZM148.336 6.70796H144.886L145.823 12.9228C144.248 8.95963 140.37 6.29016 135.557 6.29016C129.21 6.29016 124.482 10.9211 124.482 17.1346C124.482 23.3508 129.21 27.9804 135.557 27.9804C141.649 27.9804 146.207 23.7256 146.59 17.9286L148.081 27.5626H151.531L148.336 6.70796ZM135.557 24.7265C131.127 24.7265 127.847 21.4727 127.847 17.1346C127.847 12.7979 131.127 9.54402 135.557 9.54402C139.987 9.54402 143.309 12.7979 143.309 17.1346C143.309 21.4727 139.987 24.7265 135.557 24.7265Z" fill="white"/>
<path d="M95.2203 17.4351L95.304 18.0364L95.2628 17.7696C95.1352 23.8166 91.174 27.5299 85.5073 27.5299C80.0986 27.5299 75.7107 23.7333 75.7107 17.4351V6.25745H79.1615V17.4351C79.1615 21.7732 82.1005 24.1511 85.5073 24.1511C89.2997 24.1511 91.812 21.7315 91.812 17.4351H95.2203Z" fill="white"/>
<path d="M15.7185 6.25713L14.7388 0.000610352H11.2881L12.2691 6.25713H11.0754C4.72818 6.25713 0 10.4702 0 16.6838C0 22.9 4.72818 27.1118 11.0754 27.1118H15.4633L16.443 33.3683H19.8937L18.914 27.1118H20.0639C26.4111 27.1118 31.1393 22.9 31.1393 16.6838C31.1393 10.4702 26.4111 6.25713 20.0639 6.25713H15.7185ZM11.0754 23.8592C6.5599 23.8592 3.36569 20.9802 3.36569 16.6838C3.36569 12.3887 6.5599 9.51099 11.0754 9.51099H12.737L14.9941 23.8592H11.0754ZM18.4448 23.8592L16.1877 9.51099H20.0639C24.5794 9.51099 27.7736 12.3887 27.7736 16.6838C27.7736 20.9802 24.5794 23.8592 20.0639 23.8592H18.4448ZM37.9118 27.1118L52.0977 10.0108V27.1118H55.5471V6.25713H50.7764L36.8046 23.3165V6.25713H33.3538V27.1118H37.9118ZM74.1209 6.25713H57.2087L60.4043 27.1118H63.9401L61.2563 9.63594H74.1209V6.25713Z" fill="white"/>
<path fill-rule="evenodd" clip-rule="evenodd" d="M150.646 6.25745H184.804C185.868 13.3092 186.913 20.0877 188 27.1121H153.725L150.646 6.25745Z" fill="#7637E1"/>
<path d="M158.205 13.3743H157.547L157.416 12.4697L157.406 12.4489L157.301 11.7135C157.261 11.4415 157.176 11.2033 157.044 10.999C156.911 10.7934 156.745 10.6333 156.546 10.5187C156.345 10.4042 156.126 10.3469 155.886 10.3469C155.648 10.3469 155.446 10.4029 155.282 10.5148C155.117 10.6268 154.997 10.7803 154.925 10.9743C154.853 11.1682 154.835 11.3882 154.869 11.6354C154.905 11.884 154.99 12.1053 155.123 12.3018C155.256 12.4984 155.422 12.6507 155.622 12.7613C155.823 12.8706 156.043 12.9253 156.286 12.9253C156.506 12.9253 156.7 12.8823 156.869 12.7964C157.037 12.7092 157.169 12.5869 157.263 12.4281C157.358 12.2693 157.4 12.0897 157.39 11.8879L157.545 12.022C157.613 12.2966 157.602 12.5465 157.513 12.7678C157.423 12.9904 157.271 13.1648 157.055 13.2936C156.839 13.4225 156.572 13.4862 156.253 13.4862C155.905 13.4862 155.582 13.4069 155.284 13.2481C154.988 13.0893 154.741 12.8706 154.546 12.5921C154.351 12.3149 154.227 11.996 154.176 11.6354C154.125 11.2814 154.157 10.9639 154.271 10.6866C154.387 10.4081 154.569 10.1894 154.818 10.028C155.066 9.86665 155.36 9.78596 155.699 9.78596C155.962 9.78596 156.204 9.83541 156.429 9.93303C156.653 10.0306 156.847 10.1686 157.011 10.3469C157.174 10.5239 157.29 10.7296 157.358 10.9639H157.193L156.813 8.32823H157.479L158.205 13.3743ZM159.816 13.3743H159.15L158.658 9.9044L159.316 9.89789L159.816 13.3743ZM158.868 9.07791C158.744 9.07791 158.633 9.03757 158.532 8.95557C158.432 8.87357 158.376 8.77205 158.363 8.65101C158.34 8.52866 158.368 8.42584 158.444 8.34254C158.52 8.25794 158.618 8.2189 158.738 8.2228C158.867 8.2189 158.98 8.25794 159.077 8.34254C159.175 8.42584 159.233 8.52866 159.251 8.65101C159.268 8.77205 159.24 8.87357 159.166 8.95557C159.091 9.03757 158.993 9.07791 158.868 9.07791ZM164.34 13.0372C164.392 13.3925 164.355 13.7062 164.229 13.9769C164.102 14.2476 163.908 14.4598 163.644 14.6147C163.379 14.7683 163.062 14.8464 162.689 14.8464C162.351 14.8464 162.035 14.7891 161.742 14.6746C161.448 14.56 161.197 14.4025 160.987 14.2008L161.339 13.7661C161.496 13.9301 161.678 14.0589 161.885 14.1526C162.091 14.245 162.328 14.2919 162.595 14.2919C162.849 14.2919 163.062 14.2398 163.234 14.1344C163.409 14.029 163.535 13.8845 163.613 13.6997C163.692 13.5149 163.713 13.2988 163.677 13.0515L163.484 11.7135C163.442 11.4142 163.349 11.1643 163.205 10.9639C163.062 10.7621 162.89 10.6098 162.691 10.5044C162.493 10.399 162.285 10.3469 162.071 10.3469C161.837 10.3469 161.637 10.4029 161.469 10.5148C161.302 10.6268 161.181 10.7777 161.108 10.9665C161.035 11.1565 161.016 11.3699 161.05 11.6081C161.085 11.8515 161.167 12.0663 161.296 12.2524C161.427 12.4398 161.59 12.5856 161.79 12.691C161.988 12.7964 162.211 12.8485 162.46 12.8485C162.679 12.8485 162.873 12.8042 163.042 12.7157C163.211 12.6272 163.342 12.5036 163.437 12.3474C163.531 12.1912 163.572 12.0116 163.563 11.8112L163.718 11.9439C163.791 12.225 163.781 12.4749 163.686 12.6949C163.592 12.9136 163.435 13.088 163.217 13.2168C163.001 13.3444 162.736 13.4095 162.426 13.4095C162.082 13.4095 161.763 13.3327 161.467 13.1817C161.17 13.0294 160.923 12.8173 160.726 12.5439C160.529 12.2706 160.406 11.9582 160.355 11.6081C160.305 11.2528 160.339 10.9391 160.46 10.6658C160.58 10.3925 160.765 10.1777 161.012 10.0202C161.258 9.86405 161.549 9.78596 161.883 9.78596C162.126 9.78596 162.358 9.83021 162.579 9.91871C162.798 10.0085 162.994 10.14 163.161 10.3157C163.33 10.4901 163.454 10.7061 163.534 10.9639H163.383L163.23 9.89789H163.888L164.34 13.0372ZM165.999 13.3743H165.333L164.842 9.9044L165.5 9.89789L165.999 13.3743ZM165.052 9.07791C164.928 9.07791 164.816 9.03757 164.717 8.95557C164.616 8.87357 164.56 8.77205 164.546 8.65101C164.525 8.52866 164.552 8.42584 164.628 8.34254C164.703 8.25794 164.802 8.2189 164.923 8.2228C165.05 8.2189 165.163 8.25794 165.262 8.34254C165.359 8.42584 165.417 8.52866 165.434 8.65101C165.452 8.77205 165.424 8.87357 165.349 8.95557C165.275 9.03757 165.177 9.07791 165.052 9.07791ZM169.091 13.3743H168.239C167.963 13.3743 167.742 13.3027 167.576 13.1609C167.41 13.0177 167.307 12.8133 167.269 12.5478L166.746 8.91652H167.412L167.923 12.4632C167.939 12.5804 167.983 12.6702 168.054 12.7327C168.125 12.7964 168.221 12.8277 168.34 12.8277H169.013L169.091 13.3743ZM168.619 10.4445H166.272L166.193 9.89789H168.541L168.619 10.4445ZM172.914 13.3743H172.291L172.192 12.6871L172.146 12.5192L171.96 11.2229C171.92 10.9469 171.798 10.7283 171.594 10.5669C171.389 10.4068 171.132 10.3261 170.822 10.3261C170.597 10.3261 170.399 10.3716 170.225 10.4628C170.052 10.5539 169.909 10.6788 169.793 10.8376L169.317 10.4172C169.485 10.2155 169.687 10.0606 169.927 9.95125C170.167 9.84062 170.443 9.78596 170.758 9.78596C171.082 9.78596 171.376 9.84452 171.639 9.96166C171.901 10.0775 172.117 10.2402 172.285 10.4484C172.453 10.6567 172.559 10.9079 172.6 11.202L172.914 13.3743ZM170.997 13.4862C170.73 13.4862 170.487 13.4381 170.268 13.3431C170.05 13.2468 169.87 13.1153 169.732 12.9461C169.592 12.7782 169.507 12.5869 169.477 12.3721C169.442 12.1287 169.482 11.9218 169.599 11.7513C169.715 11.5808 169.891 11.4506 170.125 11.3595C170.361 11.2684 170.638 11.2229 170.957 11.2229H172.038L172.109 11.7057H171.098C170.798 11.7057 170.559 11.7591 170.381 11.8632C170.202 11.9686 170.129 12.1313 170.161 12.3513C170.188 12.5374 170.282 12.6871 170.444 12.799C170.605 12.911 170.803 12.9682 171.037 12.9682C171.266 12.9682 171.468 12.9227 171.641 12.8342C171.814 12.7457 171.945 12.6207 172.034 12.4593C172.123 12.2979 172.159 12.1131 172.143 11.9023L172.398 12.0285C172.438 12.3083 172.405 12.5582 172.299 12.7782C172.191 12.9982 172.026 13.1713 171.804 13.2975C171.581 13.4238 171.312 13.4862 170.997 13.4862ZM174.473 13.3743H173.809L173.083 8.32823H173.748L174.473 13.3743ZM158.712 19.0425H158.046L157.759 17.0382C157.71 16.6972 157.594 16.4408 157.412 16.2702C157.23 16.0997 157.006 16.0151 156.738 16.0151C156.547 16.0151 156.373 16.0633 156.216 16.1622C156.058 16.2598 155.942 16.4147 155.866 16.6243C155.792 16.8351 155.779 17.1058 155.827 17.4377L156.056 19.0425H155.392L154.892 15.5661H155.55L155.703 16.6321H155.603C155.614 16.3379 155.675 16.105 155.789 15.9345C155.902 15.7639 156.05 15.6416 156.229 15.5661C156.41 15.4919 156.603 15.4542 156.808 15.4542C157.237 15.4542 157.594 15.5843 157.88 15.8433C158.166 16.1023 158.344 16.4772 158.415 16.9679L158.712 19.0425ZM162.481 18.0195L162.955 18.4399C162.802 18.6638 162.599 18.8395 162.348 18.9657C162.097 19.092 161.802 19.1545 161.463 19.1545C161.076 19.1545 160.721 19.0751 160.398 18.9163C160.075 18.7575 159.808 18.5388 159.599 18.2616C159.389 17.9831 159.259 17.6642 159.207 17.3037C159.155 16.9444 159.191 16.6256 159.313 16.3483C159.435 16.0698 159.628 15.8512 159.891 15.6924C160.155 15.5336 160.466 15.4542 160.823 15.4542C161.171 15.4542 161.492 15.5323 161.784 15.6885C162.075 15.8459 162.319 16.0607 162.514 16.334C162.708 16.6073 162.83 16.9236 162.882 17.2829L162.889 17.3258H162.216L162.207 17.262C162.171 17.0095 162.091 16.7896 161.969 16.5995C161.845 16.4108 161.693 16.2637 161.508 16.1583C161.323 16.0529 161.121 16.0008 160.902 16.0008C160.668 16.0008 160.468 16.0542 160.302 16.1622C160.136 16.2702 160.018 16.4199 159.945 16.6139C159.873 16.8078 159.855 17.0356 159.893 17.2972C159.931 17.5588 160.02 17.7892 160.16 17.987C160.301 18.1861 160.479 18.3397 160.696 18.4464C160.911 18.5545 161.148 18.6078 161.405 18.6078C161.879 18.6078 162.236 18.4113 162.481 18.0195ZM162.917 17.5223H159.732L159.663 17.0382H162.733L162.882 17.2829L162.917 17.5223ZM167.816 19.0425H167.093L165.752 16.1336H165.917L165.412 19.0425H164.697L163.066 15.5661H163.738L165.137 18.7198H164.915L165.456 15.5661H166.086L167.52 18.7198H167.305L167.789 15.5661H168.448L167.816 19.0425ZM169.164 18.5102L169.526 18.0898C169.717 18.2577 169.927 18.3892 170.156 18.4855C170.385 18.5805 170.625 18.6286 170.878 18.6286C171.145 18.6286 171.355 18.5766 171.506 18.4712C171.658 18.3657 171.723 18.2317 171.699 18.0677C171.678 17.9193 171.589 17.8035 171.435 17.7215C171.279 17.6395 171.023 17.5757 170.662 17.5288C170.121 17.4547 169.727 17.3388 169.478 17.1813C169.229 17.0251 169.085 16.8117 169.046 16.541C169.015 16.3249 169.053 16.1362 169.158 15.9722C169.263 15.8095 169.421 15.682 169.632 15.5908C169.844 15.4997 170.095 15.4542 170.386 15.4542C170.71 15.4542 171.009 15.5101 171.283 15.6221C171.557 15.734 171.803 15.8915 172.024 16.0919L171.669 16.5123C171.502 16.3483 171.318 16.2195 171.116 16.1232C170.912 16.0282 170.694 15.98 170.46 15.98C170.217 15.98 170.026 16.0295 169.885 16.1271C169.744 16.2247 169.684 16.3509 169.707 16.5058C169.724 16.6269 169.805 16.7219 169.951 16.7896C170.097 16.8572 170.341 16.9145 170.681 16.9614C171.231 17.0356 171.635 17.1566 171.896 17.3258C172.156 17.4937 172.309 17.7293 172.352 18.0325C172.384 18.2525 172.345 18.4477 172.236 18.6182C172.127 18.7887 171.961 18.9215 171.739 19.0139C171.516 19.1076 171.25 19.1545 170.939 19.1545C170.591 19.1545 170.269 19.0972 169.974 18.9827C169.677 18.8681 169.408 18.7106 169.164 18.5102ZM158.355 24.7108H157.503C157.226 24.7108 157.004 24.6392 156.838 24.4973C156.672 24.3541 156.57 24.1498 156.532 23.8843L156.01 20.253H156.676L157.185 23.7997C157.202 23.9168 157.246 24.0066 157.317 24.0691C157.388 24.1329 157.483 24.1641 157.602 24.1641H158.275L158.355 24.7108ZM157.883 21.781H155.535L155.457 21.2343H157.804L157.883 21.781ZM160.573 21.1784L160.662 21.7953H160.504C160.29 21.7953 160.1 21.8461 159.935 21.9463C159.77 22.0465 159.651 22.2027 159.574 22.4148C159.497 22.6283 159.483 22.9055 159.532 23.2465L159.743 24.7108H159.077L158.577 21.2343H159.236L159.396 22.3485H159.296C159.305 22.0543 159.369 21.8226 159.486 21.6547C159.603 21.4868 159.748 21.3658 159.923 21.2903C160.099 21.2161 160.285 21.1784 160.48 21.1784H160.573ZM164.491 23.6878L164.967 24.1081C164.814 24.332 164.61 24.5077 164.359 24.634C164.108 24.7602 163.813 24.8227 163.474 24.8227C163.087 24.8227 162.732 24.7433 162.409 24.5845C162.085 24.4257 161.819 24.2071 161.609 23.9298C161.4 23.6513 161.27 23.3324 161.218 22.9732C161.166 22.6127 161.201 22.2938 161.323 22.0166C161.445 21.738 161.638 21.5194 161.903 21.3606C162.166 21.2018 162.475 21.1224 162.834 21.1224C163.183 21.1224 163.503 21.2005 163.794 21.3567C164.087 21.5142 164.33 21.7289 164.524 22.0022C164.719 22.2756 164.842 22.5919 164.893 22.9511L164.9 22.994H164.226L164.218 22.9303C164.181 22.6778 164.102 22.4578 163.979 22.2678C163.857 22.079 163.702 21.932 163.519 21.8265C163.334 21.7211 163.132 21.6691 162.913 21.6691C162.679 21.6691 162.479 21.7224 162.313 21.8304C162.147 21.9372 162.028 22.0882 161.956 22.2821C161.884 22.476 161.867 22.7038 161.904 22.9654C161.941 23.227 162.03 23.4574 162.171 23.6552C162.312 23.8543 162.49 24.0079 162.707 24.1147C162.922 24.2227 163.159 24.276 163.417 24.276C163.888 24.276 164.247 24.0795 164.491 23.6878ZM164.928 23.1906H161.743L161.673 22.7064H164.743L164.893 22.9511L164.928 23.1906ZM169.263 24.7108H168.597L168.308 22.7064C168.259 22.3654 168.143 22.109 167.961 21.9385C167.779 21.768 167.555 21.6834 167.287 21.6834C167.097 21.6834 166.923 21.7315 166.765 21.8304C166.607 21.9281 166.491 22.0829 166.417 22.2925C166.341 22.5033 166.328 22.7741 166.376 23.106L166.607 24.7108H165.941L165.441 21.2343H166.099L166.253 22.3003H166.152C166.163 22.0062 166.224 21.7732 166.338 21.6027C166.453 21.4322 166.599 21.3098 166.78 21.2343C166.959 21.1602 167.152 21.1224 167.358 21.1224C167.787 21.1224 168.145 21.2526 168.429 21.5116C168.715 21.7706 168.893 22.1454 168.964 22.6361L169.263 24.7108ZM173.786 24.7108H173.127L172.997 23.8062L172.987 23.7854L172.881 23.05C172.842 22.7793 172.756 22.5398 172.624 22.3354C172.491 22.1298 172.325 21.9697 172.126 21.8552C171.925 21.7406 171.706 21.6834 171.468 21.6834C171.229 21.6834 171.028 21.7393 170.862 21.8513C170.697 21.9632 170.579 22.1168 170.506 22.3107C170.434 22.5046 170.415 22.7246 170.451 22.9732C170.487 23.2205 170.571 23.4418 170.704 23.6383C170.837 23.8348 171.004 23.9871 171.203 24.0977C171.403 24.2071 171.623 24.2617 171.867 24.2617C172.087 24.2617 172.281 24.2188 172.45 24.1329C172.619 24.0457 172.751 23.9233 172.844 23.7645C172.938 23.6058 172.981 23.4261 172.97 23.2244L173.126 23.3585C173.193 23.6344 173.184 23.883 173.094 24.1042C173.003 24.3268 172.852 24.5012 172.636 24.6301C172.421 24.7589 172.154 24.8227 171.833 24.8227C171.485 24.8227 171.162 24.7433 170.864 24.5845C170.568 24.4257 170.322 24.2071 170.127 23.9298C169.931 23.6513 169.808 23.3324 169.756 22.9732C169.705 22.6179 169.737 22.3016 169.853 22.0231C169.967 21.7445 170.149 21.5259 170.398 21.3645C170.646 21.2031 170.94 21.1224 171.279 21.1224C171.542 21.1224 171.786 21.1719 172.009 21.2695C172.234 21.3684 172.428 21.5051 172.591 21.6834C172.756 21.8604 172.87 22.066 172.938 22.3003H172.773L172.394 19.6647H173.059L173.786 24.7108ZM174.367 24.1784L174.729 23.758C174.92 23.9259 175.13 24.0574 175.359 24.1537C175.587 24.2487 175.828 24.2969 176.08 24.2969C176.348 24.2969 176.558 24.2448 176.709 24.1394C176.862 24.034 176.926 23.8999 176.902 23.7372C176.881 23.5875 176.793 23.4717 176.637 23.3897C176.482 23.3077 176.225 23.2439 175.865 23.1971C175.325 23.1229 174.931 23.007 174.681 22.8496C174.432 22.6934 174.287 22.4799 174.249 22.2092C174.218 21.9944 174.255 21.8044 174.36 21.6417C174.465 21.4777 174.624 21.3502 174.835 21.2591C175.046 21.168 175.298 21.1224 175.589 21.1224C175.913 21.1224 176.212 21.1784 176.486 21.2903C176.76 21.4022 177.007 21.5597 177.226 21.7602L176.871 22.1806C176.705 22.0166 176.52 21.8877 176.318 21.7914C176.116 21.6964 175.898 21.6482 175.664 21.6482C175.421 21.6482 175.228 21.6977 175.088 21.7953C174.947 21.8929 174.887 22.0192 174.909 22.1741C174.927 22.2951 175.008 22.3901 175.154 22.4578C175.3 22.5255 175.543 22.5827 175.884 22.6296C176.434 22.7038 176.839 22.8261 177.1 22.994C177.359 23.1619 177.512 23.3975 177.556 23.7021C177.587 23.9207 177.548 24.116 177.439 24.2865C177.33 24.457 177.164 24.5897 176.942 24.6821C176.718 24.7758 176.453 24.8227 176.142 24.8227C175.793 24.8227 175.472 24.7654 175.177 24.6509C174.88 24.5364 174.612 24.3789 174.367 24.1784Z" fill="white"/>
</g>
<defs>
<clipPath id="clip0_77_1193">
<rect width="188" height="39" fill="white"/>
</clipPath>
</defs>
</svg>
