<svg width="284" height="36" viewBox="0 0 284 36" fill="none" xmlns="http://www.w3.org/2000/svg">
<g clip-path="url(#clip0_77_1182)">
<path d="M40.5067 26.7856L42.6251 21.649C42.711 21.4419 42.6873 21.2246 42.5614 21.0394C42.434 20.8542 42.2384 20.7506 42.0118 20.7506H29.9842H29.9783H24.7341C24.4585 20.7506 24.2245 20.9067 24.1208 21.1575L21.8542 26.6442C21.7505 26.895 21.5165 27.0511 21.2409 27.0511C20.9654 27.0511 20.7313 26.895 20.6276 26.6442L14.0857 10.8114C14.0176 10.6481 14.0176 10.4833 14.0857 10.3199L16.1049 5.4327C16.1908 5.2256 16.1686 5.00829 16.0412 4.82307C15.9138 4.63785 15.7182 4.5343 15.4916 4.5343H11.2251C10.9496 4.5343 10.7155 4.69035 10.6118 4.94121L8.73929 9.47256C8.70522 9.55423 8.6904 9.63007 8.6904 9.71904V10.5664V11.4137C8.6904 11.5012 8.70522 11.5785 8.73929 11.6602L12.1243 19.8552C12.2102 20.0623 12.188 20.2796 12.0606 20.4648C11.9332 20.65 11.7377 20.7536 11.511 20.7536H0.671527C0.444871 20.7536 0.249325 20.8556 0.121924 21.0409C-0.00547745 21.2261 -0.0276986 21.4434 0.0582232 21.6505L2.17664 26.7871C2.28034 27.0379 2.51588 27.194 2.78994 27.194H14.7109C14.9864 27.194 15.2205 27.3501 15.3242 27.6009L18.6262 35.5946C18.7299 35.8454 18.9655 36.0015 19.2395 36.0015H23.2393C23.5149 36.0015 23.7489 35.8454 23.8526 35.5946L27.1547 27.6009C27.2584 27.3501 27.4939 27.194 27.768 27.194H39.8919C40.1674 27.194 40.4015 27.0379 40.5052 26.7871L40.5067 26.7856Z" fill="white"/>
<path d="M20.9814 9.21439L18.863 14.351C18.7771 14.5581 18.8008 14.7754 18.9267 14.9606C19.0541 15.1458 19.2496 15.2494 19.4763 15.2494H31.5039H31.5098H36.754C37.0295 15.2494 37.2636 15.0933 37.3673 14.8425L39.6338 9.35586C39.7375 9.10501 39.9731 8.94896 40.2471 8.94896C40.5227 8.94896 40.7567 9.10501 40.8604 9.35586L47.4023 25.1886C47.4705 25.352 47.4705 25.5168 47.4023 25.6801L45.3832 30.5673C45.2973 30.7744 45.321 30.9917 45.4469 31.177C45.5728 31.3622 45.7684 31.4657 45.9965 31.4657H50.263C50.5385 31.4657 50.7726 31.3097 50.8763 31.0588L52.7488 26.5289C52.7828 26.4473 52.7976 26.3714 52.7976 26.2825V25.4351V24.5878C52.7976 24.5002 52.7828 24.4244 52.7488 24.3427L49.3623 16.1478C49.2763 15.9407 49.3 15.7234 49.426 15.5382C49.5534 15.3529 49.7489 15.2494 49.9756 15.2494H60.815C61.0417 15.2494 61.2372 15.1473 61.3646 14.9606C61.492 14.7754 61.5143 14.5581 61.4283 14.351L59.3099 9.21439C59.2062 8.96354 58.9707 8.80749 58.6966 8.80749H46.7757C46.5002 8.80749 46.2661 8.65143 46.1624 8.40058L42.8589 0.406903C42.7552 0.156053 42.5211 0 42.2456 0H38.2457C37.9702 0 37.7361 0.156053 37.6324 0.406903L34.3289 8.40058C34.2252 8.65143 33.9897 8.80749 33.7156 8.80749H21.5917C21.3162 8.80749 21.0806 8.96354 20.9769 9.21439H20.9814Z" fill="white"/>
<path d="M75.4366 27.9713C75.2292 27.9713 75.0529 27.8998 74.9062 27.7569C74.7611 27.614 74.6885 27.4302 74.6885 27.2042V7.26444C74.6885 7.03984 74.7611 6.85607 74.9062 6.71169C75.0514 6.56876 75.2381 6.4973 75.4677 6.4973H78.272C78.5002 6.4973 78.6824 6.56876 78.8172 6.71169C78.952 6.85461 79.0201 7.03838 79.0201 7.26444V21.3456L89.2715 6.98879C89.3544 6.8867 89.4685 6.77878 89.6137 6.66648C89.7589 6.55418 89.9455 6.4973 90.1751 6.4973H92.7617C92.9691 6.4973 93.1454 6.56876 93.292 6.71169C93.4372 6.85461 93.5098 7.03838 93.5098 7.26444V27.2362C93.5098 27.4404 93.4372 27.614 93.292 27.7584C93.1469 27.9013 92.9706 27.9727 92.7617 27.9727H89.9574C89.7292 27.9727 89.5426 27.9013 89.3959 27.7584C89.2507 27.6154 89.1782 27.4419 89.1782 27.2362V13.4307L78.9579 27.4813C78.8957 27.5629 78.792 27.665 78.6468 27.7875C78.5016 27.91 78.3046 27.9713 78.0542 27.9713H75.4366ZM99.1184 27.9713C98.911 27.9713 98.7347 27.9042 98.5881 27.7715C98.4429 27.6388 98.3703 27.4594 98.3703 27.2348V7.26298C98.3703 7.03838 98.4429 6.85461 98.5881 6.71023C98.7333 6.5673 98.9095 6.49584 99.1184 6.49584H101.954C102.182 6.49584 102.364 6.5673 102.499 6.71023C102.634 6.85316 102.702 7.03692 102.702 7.26298V15.1779H111.894V7.26298C111.894 7.03838 111.967 6.85461 112.112 6.71023C112.257 6.5673 112.433 6.49584 112.642 6.49584H115.447C115.675 6.49584 115.861 6.5673 116.008 6.71023C116.153 6.85316 116.226 7.03692 116.226 7.26298V27.2348C116.226 27.439 116.153 27.6125 116.008 27.7569C115.863 27.8998 115.676 27.9713 115.447 27.9713H112.642C112.435 27.9713 112.259 27.8998 112.112 27.7569C111.967 27.614 111.894 27.4404 111.894 27.2348V19.0136H102.702V27.2348C102.702 27.439 102.634 27.6125 102.499 27.7569C102.364 27.8998 102.182 27.9713 101.954 27.9713H99.1184ZM120.215 32.2358C120.008 32.2358 119.832 32.1687 119.685 32.0359C119.54 31.9032 119.467 31.7238 119.467 31.4992V24.8736C119.467 24.6694 119.54 24.4958 119.685 24.3515C119.83 24.2085 120.006 24.1371 120.215 24.1371H120.839C121.338 24.1371 121.763 23.9066 122.116 23.4472C122.468 22.9864 122.76 22.3126 122.988 21.4229C123.217 20.5333 123.388 19.4336 123.502 18.1254C123.617 16.8157 123.674 15.3237 123.674 13.6465V7.23527C123.674 7.03109 123.742 6.85753 123.877 6.71315C124.012 6.57022 124.194 6.49876 124.422 6.49876H137.791C138.019 6.49876 138.205 6.57022 138.352 6.71315C138.497 6.85607 138.57 7.03984 138.57 7.26589V24.1385H140.066C140.294 24.1385 140.481 24.21 140.628 24.3529C140.773 24.4958 140.845 24.6694 140.845 24.875V31.5007C140.845 31.7253 140.773 31.9047 140.628 32.0374C140.482 32.1701 140.296 32.2372 140.066 32.2372H137.262C137.034 32.2372 136.851 32.1701 136.717 32.0374C136.582 31.9047 136.514 31.7253 136.514 31.5007V27.9727H123.8V31.5007C123.8 31.7253 123.728 31.9047 123.582 32.0374C123.437 32.1701 123.251 32.2372 123.021 32.2372H120.217L120.215 32.2358ZM126.136 24.1371H134.238V10.3315H127.85V14.1964C127.85 16.7326 127.705 18.8036 127.415 20.4093C127.124 22.015 126.698 23.2576 126.138 24.1371H126.136ZM145.051 27.9713C144.844 27.9713 144.667 27.8998 144.521 27.7569C144.376 27.614 144.303 27.4404 144.303 27.2348V7.26298C144.303 7.03838 144.376 6.85461 144.521 6.71023C144.666 6.5673 144.842 6.49584 145.051 6.49584H158.762C158.99 6.49584 159.178 6.5673 159.323 6.71023C159.468 6.85316 159.541 7.03692 159.541 7.26298V9.28728C159.541 9.49146 159.468 9.66502 159.323 9.8094C159.178 9.95233 158.991 10.0238 158.762 10.0238H148.51V15.4535H158.077C158.305 15.4535 158.493 15.5206 158.639 15.6534C158.784 15.7861 158.856 15.9655 158.856 16.1901V18.0919C158.856 18.3165 158.784 18.4958 158.639 18.6286C158.493 18.7613 158.307 18.8284 158.077 18.8284H148.51V24.4419H159.012C159.24 24.4419 159.427 24.5133 159.573 24.6563C159.718 24.7992 159.791 24.983 159.791 25.209V27.2333C159.791 27.4375 159.718 27.6111 159.573 27.7554C159.428 27.8984 159.241 27.9698 159.012 27.9698H145.051V27.9713ZM164.434 27.9713C164.226 27.9713 164.05 27.9042 163.903 27.7715C163.758 27.6388 163.686 27.4594 163.686 27.2348V7.26298C163.686 7.03838 163.758 6.85461 163.903 6.71023C164.049 6.5673 164.225 6.49584 164.434 6.49584H167.269C167.497 6.49584 167.68 6.5673 167.814 6.71023C167.949 6.85316 168.017 7.03692 168.017 7.26298V15.1779H170.728L175.808 7.04859C175.912 6.88524 176.053 6.75252 176.229 6.65043C176.405 6.54834 176.639 6.4973 176.93 6.4973H180.014C180.221 6.4973 180.383 6.55855 180.497 6.68106C180.611 6.80357 180.669 6.95671 180.669 7.14193C180.669 7.24402 180.627 7.36653 180.544 7.50945L174.654 16.8668L181.104 26.9285C181.166 26.9898 181.197 27.1021 181.197 27.2654C181.197 27.4492 181.129 27.6125 180.995 27.7569C180.86 27.8998 180.688 27.9713 180.48 27.9713H177.27C177.001 27.9713 176.798 27.91 176.663 27.7875C176.528 27.665 176.418 27.5527 176.335 27.4506L170.882 19.0136H168.016V27.2348C168.016 27.439 167.948 27.6125 167.813 27.7569C167.678 27.8998 167.496 27.9713 167.268 27.9713H164.432H164.434ZM191.856 28.2776C189.924 28.2776 188.287 27.945 186.948 27.28C185.609 26.6149 184.585 25.664 183.879 24.4273C183.172 23.1905 182.778 21.7015 182.695 19.963C182.674 19.1244 182.664 18.2246 182.664 17.2635C182.664 16.3024 182.674 15.3821 182.695 14.5026C182.778 12.7846 183.178 11.3014 183.895 10.0544C184.612 8.80746 185.64 7.85073 186.979 7.18568C188.319 6.52063 189.945 6.18811 191.856 6.18811C193.269 6.18811 194.536 6.37187 195.658 6.74086C196.779 7.10838 197.734 7.61592 198.524 8.25909C199.314 8.90372 199.927 9.65481 200.362 10.5138C200.798 11.3728 201.028 12.3033 201.048 13.3053C201.069 13.489 201.011 13.6422 200.877 13.7661C200.742 13.8886 200.58 13.9499 200.394 13.9499H197.434C197.206 13.9499 197.019 13.893 196.872 13.7807C196.727 13.6684 196.623 13.4788 196.561 13.2134C196.229 11.8629 195.658 10.9426 194.847 10.4526C194.037 9.96108 193.029 9.71606 191.825 9.71606C190.433 9.71606 189.322 10.0996 188.49 10.8668C187.659 11.6339 187.213 12.8969 187.151 14.6558C187.089 16.333 187.089 18.051 187.151 19.8099C187.213 21.5688 187.661 22.8318 188.49 23.5989C189.322 24.366 190.433 24.7496 191.825 24.7496C193.029 24.7496 194.043 24.4988 194.863 23.9985C195.684 23.4968 196.25 22.5824 196.561 21.2523C196.623 20.9664 196.727 20.771 196.872 20.6689C197.017 20.5668 197.204 20.5158 197.434 20.5158H200.394C200.58 20.5158 200.742 20.577 200.877 20.6995C201.011 20.822 201.069 20.9752 201.048 21.1604C201.028 22.1623 200.799 23.0928 200.362 23.9518C199.927 24.8109 199.314 25.562 198.524 26.2066C197.734 26.8512 196.779 27.3573 195.658 27.7248C194.536 28.0923 193.268 28.2776 191.856 28.2776ZM203.417 27.9713C203.251 27.9713 203.1 27.91 202.965 27.7875C202.831 27.665 202.762 27.5119 202.762 27.3267C202.762 27.245 202.783 27.1531 202.825 27.051L210.334 7.26444C210.396 7.06025 210.516 6.88087 210.692 6.72773C210.869 6.5746 211.113 6.4973 211.424 6.4973H214.821C215.132 6.4973 215.372 6.5746 215.538 6.72773C215.704 6.88087 215.828 7.06025 215.911 7.26444L223.421 27.051C223.441 27.1531 223.452 27.245 223.452 27.3267C223.452 27.5104 223.39 27.6636 223.265 27.7875C223.141 27.91 222.995 27.9713 222.83 27.9713H220.119C219.828 27.9713 219.615 27.9042 219.48 27.7715C219.345 27.6388 219.256 27.5104 219.215 27.3879L217.75 23.6456H208.495L207.03 27.3879C206.989 27.5104 206.9 27.6388 206.765 27.7715C206.63 27.9042 206.417 27.9713 206.127 27.9713H203.416H203.417ZM209.587 20.1176H216.661L213.109 10.6378L209.587 20.1176ZM231.899 27.9713C231.691 27.9713 231.515 27.8998 231.368 27.7569C231.223 27.614 231.151 27.4404 231.151 27.2348V10.2703H225.386C225.179 10.2703 225.003 10.1988 224.856 10.0559C224.711 9.91295 224.638 9.7394 224.638 9.53376V7.26298C224.638 7.03838 224.711 6.85461 224.856 6.71023C225.001 6.5673 225.178 6.49584 225.386 6.49584H241.279C241.507 6.49584 241.694 6.5673 241.84 6.71023C241.986 6.85316 242.058 7.03692 242.058 7.26298V9.53376C242.058 9.73794 241.986 9.91149 241.84 10.0559C241.695 10.1988 241.509 10.2703 241.279 10.2703H235.546V27.2348C235.546 27.439 235.473 27.6125 235.328 27.7569C235.183 27.8998 234.996 27.9713 234.767 27.9713H231.9H231.899ZM253.587 28.2776C251.738 28.2776 250.148 27.9757 248.819 27.3733C247.491 26.7695 246.451 25.8391 245.704 24.5819C244.956 23.3247 244.551 21.754 244.489 19.8726C244.469 18.9932 244.458 18.1239 244.458 17.2649C244.458 16.4059 244.469 15.5265 244.489 14.6266C244.551 12.7657 244.966 11.211 245.735 9.964C246.504 8.71704 247.559 7.77635 248.898 7.14193C250.237 6.50751 251.802 6.19103 253.588 6.19103C255.375 6.19103 256.943 6.50751 258.293 7.14193C259.644 7.77635 260.703 8.71704 261.472 9.964C262.241 11.211 262.656 12.7657 262.718 14.6266C262.76 15.5265 262.78 16.4059 262.78 17.2649C262.78 18.1239 262.76 18.9932 262.718 19.8726C262.656 21.754 262.25 23.3233 261.503 24.5819C260.755 25.8391 259.711 26.7695 258.372 27.3733C257.032 27.9771 255.437 28.2776 253.588 28.2776H253.587ZM253.587 24.7496C254.936 24.7496 256.038 24.3558 256.89 23.5683C257.742 22.7807 258.198 21.4973 258.262 19.718C258.303 18.8182 258.324 17.9854 258.324 17.2183C258.324 16.4511 258.303 15.6286 258.262 14.7491C258.22 13.5634 257.997 12.5965 257.592 11.8498C257.188 11.103 256.641 10.562 255.957 10.2236C255.271 9.8867 254.481 9.71752 253.588 9.71752C252.716 9.71752 251.936 9.8867 251.25 10.2236C250.565 10.5605 250.019 11.103 249.615 11.8498C249.211 12.5965 248.987 13.562 248.945 14.7491C248.925 15.6286 248.914 16.4511 248.914 17.2183C248.914 17.9854 248.925 18.8182 248.945 19.718C249.008 21.4973 249.465 22.7807 250.317 23.5683C251.169 24.3558 252.259 24.7496 253.59 24.7496H253.587ZM267.61 27.9713C267.402 27.9713 267.226 27.8998 267.079 27.7569C266.934 27.614 266.862 27.4404 266.862 27.2348V7.26298C266.862 7.03838 266.934 6.85461 267.079 6.71023C267.224 6.5673 267.401 6.49584 267.61 6.49584H275.96C277.581 6.49584 278.993 6.74669 280.199 7.24693C281.403 7.74864 282.338 8.5041 283.003 9.51772C283.668 10.5299 284 11.7929 284 13.3067C284 14.841 283.668 16.104 283.003 17.0957C282.338 18.0875 281.403 18.8284 280.199 19.3199C278.994 19.8113 277.581 20.0564 275.96 20.0564H271.318V27.2348C271.318 27.439 271.249 27.6125 271.115 27.7569C270.98 27.8998 270.798 27.9713 270.57 27.9713H267.61ZM271.255 16.6509H275.805C277.009 16.6509 277.934 16.3694 278.578 15.8079C279.222 15.245 279.544 14.4122 279.544 13.3082C279.544 12.2858 279.243 11.4618 278.64 10.8391C278.037 10.2148 277.092 9.90274 275.805 9.90274H271.255V16.6524V16.6509Z" fill="white"/>
</g>
<defs>
<clipPath id="clip0_77_1182">
<rect width="284" height="36" fill="white"/>
</clipPath>
</defs>
</svg>
