<svg width="104" height="40" viewBox="0 0 104 40" fill="none" xmlns="http://www.w3.org/2000/svg">
<path fill-rule="evenodd" clip-rule="evenodd" d="M18.0686 12.2463H11.4736L10.1874 24.9949H16.7272L18.0686 12.2463ZM20.2481 12.2463L18.9067 24.9949H26.8048L26.638 26.9041H18.7376L17.3962 39.3753H15.216L16.5575 26.9041H9.96599L8.68093 39.3753H6.50082L7.84167 26.9041H0L0.166226 24.9949H8.00789L9.34932 12.2463H1.45186L1.61808 10.3354H9.51904L10.5797 0H12.7593L11.6957 10.3354H18.2348L19.2955 0H21.4751L20.415 10.3354H28.3159L28.1456 12.2463H20.2481Z" fill="white"/>
<path fill-rule="evenodd" clip-rule="evenodd" d="M39.1319 5.67324V33.7562H42.5976C44.5551 33.7562 45.7263 32.7467 45.7263 29.938V9.49264C45.7263 6.68446 44.5551 5.67324 42.5976 5.67324H39.1319ZM32.9879 0.0568848H42.7069C48.8549 0.0568848 51.8737 3.48255 51.8737 9.77422V29.6564C51.8737 35.9463 48.8549 39.3749 42.7069 39.3749H32.9879V0.0568848Z" fill="white"/>
<path fill-rule="evenodd" clip-rule="evenodd" d="M55.7813 0.0568848H61.9288V39.3749H55.7813V0.0568848Z" fill="white"/>
<path fill-rule="evenodd" clip-rule="evenodd" d="M72.5425 16.625H80.9811V22.2413H72.5425V33.7562H83.1601V39.3749H66.3939V0.0568848H83.1601V5.67324H72.5425V16.625Z" fill="white"/>
<path fill-rule="evenodd" clip-rule="evenodd" d="M104 0.0568848V5.56108L92.3206 33.7562H104V39.3749H86.0063V33.8701L97.6857 5.67324H86.5643V0.0568848H104Z" fill="white"/>
</svg>
