<svg width="63" height="33" viewBox="0 0 63 33" xmlns="http://www.w3.org/2000/svg">
<path d="M60.8503 26.3836L57.0482 1.56916L32.0682 19.6087L60.8503 26.3836Z"/>
<path d="M60.8503 26.3836L57.0482 1.56916L32.0682 19.6087L60.8503 26.3836Z"/>
<path d="M60.8503 26.3836L57.0482 1.56916L32.0682 19.6087L60.8503 26.3836Z"/>
<path d="M13.2382 32.6256L5.07876 8.75991L36.6258 17.8266L13.2382 32.6256Z"/>
<path d="M13.2382 32.6256L5.07876 8.75991L36.6258 17.8266L13.2382 32.6256Z"/>
<path d="M13.2382 32.6256L5.07876 8.75991L36.6258 17.8266L13.2382 32.6256Z"/>
<ellipse cx="7.41272" cy="6.39027" rx="7.41272" ry="6.39027" transform="matrix(-0.998164 -0.0605662 -0.0605662 0.998164 42.7444 12.4808)"/>
</svg>
