<svg width="32" height="33" viewBox="0 0 32 33" fill="none" xmlns="http://www.w3.org/2000/svg">
<path d="M5.33337 17.5951C5.33337 16.9903 5.82367 16.5 6.42848 16.5H25.5716C26.1764 16.5 26.6667 16.9903 26.6667 17.5951V26.3098C26.6667 27.5194 25.6861 28.5 24.4765 28.5H7.52359C6.31397 28.5 5.33337 27.5194 5.33337 26.3098V17.5951Z" stroke="white" stroke-width="1.5"/>
<rect x="4" y="11.1667" width="24" height="5.33333" rx="1.09511" stroke="white" stroke-width="1.5"/>
<path d="M7.09264 9.21688C5.38396 6.08312 9.14295 3.57627 12.5601 4.82962C15.4737 5.89827 15.9293 8.76896 15.9911 10.5501C16.0016 10.8523 15.7552 11.0968 15.4528 11.1016C12.1368 11.1543 8.38769 11.592 7.09264 9.21688Z" stroke="white" stroke-width="1.5" stroke-linecap="round"/>
<path d="M24.9074 9.21688C26.616 6.08312 22.8571 3.57627 19.4399 4.82962C16.5263 5.89827 16.0707 8.76896 16.0089 10.5501C15.9984 10.8523 16.2448 11.0968 16.5472 11.1016C19.8632 11.1543 23.6123 11.592 24.9074 9.21688Z" stroke="white" stroke-width="1.5" stroke-linecap="round"/>
<path d="M16 11.1667V28.5" stroke="white" stroke-width="1.5" stroke-linecap="round"/>
</svg>
