<svg width="163" height="44" viewBox="0 0 163 44" fill="none" xmlns="http://www.w3.org/2000/svg">
<g clip-path="url(#clip0_77_1127)">
<path d="M0.000427246 21.7448L17.3647 13.4448V0L0.000427246 8.45193V21.7448Z" fill="white"/>
<path d="M0.000228882 22.2552L17.3645 30.5557V44L0.000228882 35.5481V22.2552Z" fill="white"/>
<path d="M45.0182 21.7448L27.6539 13.4448V0L45.0182 8.45193V21.7448Z" fill="white"/>
<path d="M45.0182 22.2552L27.6539 30.5557V44L45.0182 35.5481V22.2552Z" fill="white"/>
<path d="M75.9722 20.1705H73.5737L65.975 8.17978V20.1705H63.6002V3.9602H65.975L73.5737 15.9509V3.9602H75.9722V20.1705ZM88.2487 18.2632C89.9581 18.2632 91.4148 17.6591 92.6176 16.4516C93.8208 15.2437 94.4222 13.7816 94.4222 12.0655C94.4222 10.349 93.8204 8.887 92.6176 7.67908C91.4143 6.47115 89.9581 5.86742 88.2487 5.86742C86.5388 5.86742 85.0826 6.4716 83.8793 7.67908C82.6761 8.887 82.0747 10.349 82.0747 12.0655C82.0747 13.7816 82.6765 15.2442 83.8793 16.4516C85.0826 17.6596 86.5388 18.2632 88.2487 18.2632ZM88.2487 20.647C86.6814 20.647 85.2487 20.2616 83.9508 19.491C82.6524 18.7204 81.6199 17.6833 80.8517 16.3798C80.0841 15.0768 79.7003 13.6385 79.7003 12.0652C79.7003 10.4917 80.0841 9.05347 80.8517 7.75042C81.6194 6.44693 82.6524 5.41031 83.9508 4.63924C85.2487 3.8686 86.6814 3.48328 88.2487 3.48328C89.816 3.48328 91.2486 3.8686 92.5465 4.63924C93.8449 5.40987 94.8775 6.44693 95.6456 7.75042C96.4135 9.05347 96.7971 10.4917 96.7971 12.0652C96.7971 13.6385 96.4135 15.0768 95.6456 16.3798C94.878 17.6833 93.8449 18.72 92.5465 19.491C91.2486 20.2616 89.816 20.647 88.2487 20.647ZM107.744 20.1705H105.37L98.4836 3.9602H100.858L106.557 17.3812L112.279 3.9602H114.654L107.744 20.1705ZM123.725 13.9724L121.232 7.20217L118.762 13.9724H123.725ZM128.379 20.1705H125.98L124.603 16.3565H117.883L116.482 20.1705H114.108L120.044 3.9602H122.418L128.379 20.1705Z" fill="white"/>
<path d="M71.4367 41.1996H69.0618V27.3735H63.6002V24.9894H76.8978V27.3735H71.4362L71.4367 41.1996ZM91.8579 41.1996H79.985V24.9894H91.8579V27.3735H82.3594V31.9026H90.4327V34.2868H82.3594V38.8164H91.8579V41.1996ZM102.805 41.6762C101.222 41.6762 99.7848 41.2908 98.4942 40.5202C97.2046 39.7496 96.1758 38.7125 95.4078 37.409C94.6402 36.106 94.2564 34.6677 94.2564 33.0943C94.2564 31.5368 94.6402 30.1064 95.4078 28.8034C96.1758 27.5003 97.2046 26.4633 98.4942 25.6922C99.7848 24.9216 101.221 24.5363 102.805 24.5363C104.214 24.5363 105.516 24.8502 106.711 25.4778C107.906 26.1057 108.899 26.9517 109.691 28.0165L107.625 29.2323C106.358 27.6906 104.751 26.9199 102.805 26.9199C101.095 26.9199 99.639 27.5242 98.4357 28.7316C97.2324 29.9396 96.6312 31.3936 96.6312 33.0943C96.6312 34.7787 97.2324 36.2328 98.4357 37.4566C99.639 38.6804 101.095 39.292 102.805 39.292C104.751 39.292 106.358 38.5214 107.625 36.9797L109.691 38.1717C108.899 39.2524 107.906 40.1067 106.711 40.7342C105.516 41.3622 104.214 41.6762 102.805 41.6762ZM125.055 41.1996H122.68V34.2864H115.081V41.1996H112.706V24.9894H115.081V31.9026H122.68V24.9894H125.055V41.1996ZM142.151 41.1996H139.776L132.178 29.209V41.1996H129.803V24.9894H132.178L139.776 36.98V24.9894H142.151V41.1996ZM154.451 39.2924C156.161 39.2924 157.618 38.6883 158.821 37.4808C160.024 36.2729 160.625 34.8108 160.625 33.0947C160.625 31.3782 160.023 29.9162 158.821 28.7082C157.617 27.5003 156.161 26.8966 154.451 26.8966C152.742 26.8966 151.285 27.5008 150.082 28.7082C148.879 29.9162 148.277 31.3782 148.277 33.0947C148.277 34.8108 148.879 36.2733 150.082 37.4808C151.285 38.6887 152.742 39.2924 154.451 39.2924ZM154.451 41.6762C152.884 41.6762 151.452 41.2908 150.154 40.5202C148.855 39.7496 147.823 38.7125 147.055 37.409C146.287 36.106 145.903 34.6677 145.903 33.0943C145.903 31.5209 146.287 30.0827 147.055 28.7796C147.822 27.4761 148.855 26.4395 150.154 25.6684C151.452 24.8977 152.884 24.5125 154.451 24.5125C156.019 24.5125 157.451 24.8977 158.75 25.6684C160.048 26.4391 161.08 27.4761 161.848 28.7796C162.616 30.0827 163 31.5209 163 33.0943C163 34.6677 162.616 36.106 161.848 37.409C161.08 38.7125 160.048 39.7491 158.75 40.5202C157.451 41.2908 156.019 41.6762 154.451 41.6762Z" fill="white"/>
</g>
<defs>
<clipPath id="clip0_77_1127">
<rect width="163" height="44" fill="white"/>
</clipPath>
</defs>
</svg>
